<svg xmlns="http://www.w3.org/2000/svg" width="12.343" height="12.343" viewBox="0 0 12.343 12.343"><defs><style>.a{fill:#a8aaac;}</style></defs><path class="a" d="M16.79,12.779l-.522-.537a.112.112,0,0,0-.083-.036h0a.108.108,0,0,0-.083.036l-3.62,3.646-1.317-1.317a.115.115,0,0,0-.166,0l-.528.528a.118.118,0,0,0,0,.169l1.661,1.661a.525.525,0,0,0,.347.169.551.551,0,0,0,.344-.163h0l3.967-3.988A.127.127,0,0,0,16.79,12.779Z" transform="translate(-7.456 -8.48)"/><path class="a" d="M9.546,4.206A5.338,5.338,0,1,1,5.769,5.769,5.305,5.305,0,0,1,9.546,4.206m0-.831a6.171,6.171,0,1,0,6.171,6.171A6.17,6.17,0,0,0,9.546,3.375Z" transform="translate(-3.375 -3.375)"/></svg>