<svg xmlns="http://www.w3.org/2000/svg" width="113.938" height="80.217" viewBox="0 0 113.938 80.217">
  <g id="forgot-password" transform="translate(-0.001 0.001)">
    <path id="Path_11253" data-name="Path 11253" d="M454.389,672.317a3.018,3.018,0,0,0,2.869.724,5.987,5.987,0,0,0,2.924-2.607l2.285-3.212-1.926.353a11.751,11.751,0,0,0-4.01,1.247,3.988,3.988,0,0,0-2.1,3.43" transform="translate(-348.528 -596.725)" fill="#e6e6e6"/>
    <path id="Path_11254" data-name="Path 11254" d="M441.59,696.717a15.61,15.61,0,0,1,1.274-3.368,5.653,5.653,0,0,1,2.208-2.258,4.931,4.931,0,0,1,1.624-.528c.148-.021.172.21.025.23a4.688,4.688,0,0,0-2.608,1.282,7.5,7.5,0,0,0-1.688,2.79c-.232.619-.418,1.253-.6,1.887a.119.119,0,0,1-.132.1.117.117,0,0,1-.1-.132Z" transform="translate(-337.518 -616.798)" fill="#f2f2f2"/>
    <path id="Path_11255" data-name="Path 11255" d="M700.035,402.788a1.544,1.544,0,0,1,1.9,1.409l5.283,1.485-2.156,1.867-4.687-1.7a1.553,1.553,0,0,1-.344-3.065Z" transform="translate(-635.777 -369.248)" fill="#ffb7b7"/>
    <path id="Path_11256" data-name="Path 11256" d="M542.385,524.775h-1.54l-.733-5.94h2.273Z" transform="translate(-464.549 -446.249)" fill="#ffb7b7"/>
    <path id="Path_11257" data-name="Path 11257" d="M776.728,723.01h-4.966v-.063a1.933,1.933,0,0,1,1.933-1.933h3.033Z" transform="translate(-698.5 -642.991)" fill="#2f2e41"/>
    <path id="Path_11258" data-name="Path 11258" d="M606.887,524.775h-1.54l-.733-5.94h2.273Z" transform="translate(-520.027 -446.249)" fill="#ffb7b7"/>
    <path id="Path_11259" data-name="Path 11259" d="M841.229,723.01h-4.966v-.063a1.933,1.933,0,0,1,1.933-1.933h3.033Z" transform="translate(-753.977 -642.991)" fill="#2f2e41"/>
    <path id="Path_11260" data-name="Path 11260" d="M533.416,312.658l-2.268,15.713.565,16.555,3.406.271,1.065-14.847,2.712-8.279,1.594,11.8.065,11.053,3.518.271L545.3,321.96l-.9-10.106Z" transform="translate(-456.839 -268.225)" fill="#2f2e41"/>
    <circle id="Ellipse_50" data-name="Ellipse 50" cx="3.589" cy="3.589" r="3.589" transform="translate(79.549 16.218)" fill="#ffb7b7"/>
    <path id="Path_11261" data-name="Path 11261" d="M802.185,340.278l-3.962,19.959s6.67,1.914,9.592.147,1.613-7.223,1.613-7.223l-.535-9.284-.989-2.348-.839-1.938Z" transform="translate(-721.259 -314.93)" fill="#cbcbcb"/>
    <path id="Path_11262" data-name="Path 11262" d="M778.343,356.282l1.369-14.555-1.095.8-3.827,1.243-.262,10.247-2.677,13.475s1.913,3.734,4.285-2.443Z" transform="translate(-698.576 -316.767)" fill="#2f2e41"/>
    <path id="Path_11263" data-name="Path 11263" d="M491.422,194.54l-1.842-1.533L485.441,202l-4.619-1.012-.218,2.728,6.692,2.648,4.561-6.349Z" transform="translate(-413.367 -166.005)" fill="#2f2e41"/>
    <path id="Path_11264" data-name="Path 11264" d="M609.144,186.851,609.66,175l1.9,1.47,3.39.945-.5,9.431.715,14.634-3.554,1.126-1-9.234Z" transform="translate(-523.924 -150.521)" fill="#2f2e41"/>
    <path id="Path_11265" data-name="Path 11265" d="M858.7,457.842a1.544,1.544,0,0,1,2.055-1.177l3.483-4.241.844,2.724-3.437,3.61a1.553,1.553,0,0,1-2.945-.916Z" transform="translate(-773.256 -411.977)" fill="#ffb7b7"/>
    <path id="Path_11266" data-name="Path 11266" d="M629.715,193.581l2.27-1.315,5.711,11.278-5.568,7.732-3.176-2.539,3.856-5.029-3.515-5.4Z" transform="translate(-540.961 -165.368)" fill="#2f2e41"/>
    <path id="Path_11267" data-name="Path 11267" d="M821.873,272.132l.174-.35-.875-.435a2.566,2.566,0,0,0-2.713-1.13c-1.748.442-2.534.706-2.534.706l-.873.439.438.436-.786.264.525.261-.611.351.329,1.8s.547-1.366,1.6-.844,2.972-.27,2.972-.27l1.669,3.231s.344-1.133.958-.831C822.143,275.762,823.712,273.264,821.873,272.132Z" transform="translate(-735.359 -255.194)" fill="#2f2e41"/>
    <path id="Path_11268" data-name="Path 11268" d="M313.863,322.019h-.023l-13.161,5.62-18.007,7.689a.581.581,0,0,1-.445,0l-18.578-7.707-13.484-5.594-.021-.009h-.023a.8.8,0,0,0-.8.8v34.851a.8.8,0,0,0,.8.8h63.74a.8.8,0,0,0,.8-.8V322.822a.8.8,0,0,0-.8-.8Z" transform="translate(-249.149 -299.816)" fill="#fff"/>
    <path id="Path_11269" data-name="Path 11269" d="M317.092,185.747a.114.114,0,0,1-.065-.021l-31.7-22.08a.575.575,0,0,0-.657,0l-31.477,22.079a.115.115,0,1,1-.132-.188l31.477-22.079a.805.805,0,0,1,.919,0l31.7,22.08a.115.115,0,0,1-.066.209Z" transform="translate(-252.32 -163.315)" fill="#3f3d56"/>
    <path id="Path_11270" data-name="Path 11270" d="M19.063,29.078,49.1,6.817,79.365,30.662,50.648,47.686,35.057,44.133Z" transform="translate(-16.396 -5.863)" fill="#e6e6e6"/>
    <path id="Path_11271" data-name="Path 11271" d="M295.385,528.9H280.546a.694.694,0,0,1,0-1.387h14.841a.694.694,0,0,1,0,1.387Z" transform="translate(-275.409 -476.559)" fill="#c63831"/>
    <path id="Path_11272" data-name="Path 11272" d="M285.87,507.592h-5.324a.693.693,0,1,1,0-1.387h5.326a.694.694,0,1,1,0,1.387Z" transform="translate(-275.409 -458.234)" fill="#c63831"/>
    <path id="Path_11273" data-name="Path 11273" d="M368.965,217.377a.868.868,0,0,1-.329-.064l-18.525-7.687v-24.06a.8.8,0,0,1,.8-.8H386.45a.8.8,0,0,1,.8.8v24.077l-.035.015L369.3,217.309a.873.873,0,0,1-.335.068Z" transform="translate(-335.839 -181.763)" fill="#c63831"/>
    <path id="Path_11274" data-name="Path 11274" d="M312.634,322.019h-.023l-13.161,5.62-18.007,7.689a.581.581,0,0,1-.445,0l-18.578-7.707-13.484-5.594-.021-.009h-.023a.8.8,0,0,0-.8.8v34.851a.8.8,0,0,0,.8.8h63.74a.8.8,0,0,0,.8-.8V322.822a.8.8,0,0,0-.8-.8Zm.573,35.653a.573.573,0,0,1-.573.573h-63.74a.573.573,0,0,1-.573-.573v-34.85a.574.574,0,0,1,.551-.573l13.549,5.622,18.489,7.672a.816.816,0,0,0,.624,0l17.916-7.651,13.207-5.639a.575.575,0,0,1,.55.573Z" transform="translate(-248.091 -299.816)" fill="#3f3d56"/>
    <path id="Path_11275" data-name="Path 11275" d="M381.1,237.773H368.485a.917.917,0,0,1,0-1.834H381.1a.917.917,0,0,1,0,1.834Z" transform="translate(-350.853 -225.778)" fill="#fff"/>
    <path id="Path_11276" data-name="Path 11276" d="M374.561,209.912h-6.076a.917.917,0,0,1,0-1.834h6.076a.917.917,0,0,1,0,1.834Z" transform="translate(-350.853 -201.815)" fill="#fff"/>
    <path id="Path_11277" data-name="Path 11277" d="M426.232,303.328h-19.26a.917.917,0,0,1,0-1.834h19.26a.917.917,0,0,1,0,1.834Z" transform="translate(-383.956 -282.162)" fill="#fff"/>
    <path id="Path_11278" data-name="Path 11278" d="M426.232,333.647h-19.26a.917.917,0,0,1,0-1.834h19.26a.917.917,0,0,1,0,1.834Z" transform="translate(-383.956 -308.239)" fill="#fff"/>
    <path id="Path_11279" data-name="Path 11279" d="M723.843,734.594H687.049a.14.14,0,0,1,0-.28h36.794a.14.14,0,0,1,0,.28Z" transform="translate(-625.517 -654.431)" fill="#cbcbcb"/>
    <path id="Path_11280" data-name="Path 11280" d="M407.619,734.594h-13.57a.14.14,0,0,1,0-.28h13.57a.14.14,0,1,1,0,.28Z" transform="translate(-296.508 -654.431)" fill="#cbcbcb"/>
    <path id="Path_11281" data-name="Path 11281" d="M423.859,648.166a3.018,3.018,0,0,0,2.545-1.51,5.986,5.986,0,0,0,.235-3.911l-.645-3.889-1.116,1.608a11.744,11.744,0,0,0-1.964,3.712,3.988,3.988,0,0,0,.933,3.91" transform="translate(-321.329 -572.328)" fill="#e6e6e6"/>
    <path id="Path_11282" data-name="Path 11282" d="M432.788,687.114a15.608,15.608,0,0,1-1.472-3.286,5.653,5.653,0,0,1-.027-3.158,4.929,4.929,0,0,1,.779-1.519c.09-.119.27.027.18.146a4.687,4.687,0,0,0-.945,2.748,7.5,7.5,0,0,0,.77,3.169c.272.6.587,1.184.9,1.764a.12.12,0,0,1-.025.162.117.117,0,0,1-.162-.025Z" transform="translate(-328.476 -606.946)" fill="#f2f2f2"/>
  </g>
</svg>
