<svg id="Icon_awesome-file-signature" data-name="Icon awesome-file-signature" xmlns="http://www.w3.org/2000/svg" width="15.522" height="13.798" viewBox="0 0 15.522 13.798">
  <path id="Icon_awesome-file-signature-2" data-name="Icon awesome-file-signature" d="M5.879,11.43a.3.3,0,0,0-.274-.176.294.294,0,0,0-.27.167l-.207.413a.431.431,0,0,1-.794-.056l-.454-1.36-.286.859a1.163,1.163,0,0,1-1.1.8H2.156a.431.431,0,0,1,0-.862H2.49A.3.3,0,0,0,2.777,11l.49-1.472a.647.647,0,0,1,1.228,0l.374,1.122a1.209,1.209,0,0,1,1.779.382A.306.306,0,0,0,6.9,11.2V8.991l3.449-3.425V4.312H6.683a.649.649,0,0,1-.647-.647V0H.647A.645.645,0,0,0,0,.647v12.5a.645.645,0,0,0,.647.647H9.7a.645.645,0,0,0,.647-.647V12.073l-3.449,0A1.157,1.157,0,0,1,5.879,11.43Zm4.469-8.145a.645.645,0,0,0-.189-.455L7.521.189A.646.646,0,0,0,7.063,0H6.9V3.449h3.449ZM7.761,9.35v1.861H9.62l4.357-4.387L12.148,4.995,7.761,9.35Zm7.56-4.841-.859-.859a.686.686,0,0,0-.97,0l-.734.734,1.829,1.829.734-.734A.686.686,0,0,0,15.321,4.509Z" fill="#ff2d2e"/>
</svg>
