<svg xmlns="http://www.w3.org/2000/svg" xmlns:xlink="http://www.w3.org/1999/xlink" width="742.183" height="727.711" viewBox="0 0 742.183 727.711">
  <defs>
    <filter id="Path_11408" x="36.983" y="0" width="705.2" height="712.754" filterUnits="userSpaceOnUse">
      <feOffset dy="8" input="SourceAlpha"/>
      <feGaussianBlur stdDeviation="5" result="blur"/>
      <feFlood flood-opacity="0.4"/>
      <feComposite operator="in" in2="blur"/>
      <feComposite in="SourceGraphic"/>
    </filter>
    <filter id="Path_11409" x="0" y="31.281" width="688.262" height="696.43" filterUnits="userSpaceOnUse">
      <feOffset dy="8" input="SourceAlpha"/>
      <feGaussianBlur stdDeviation="5" result="blur-2"/>
      <feFlood flood-opacity="0.2"/>
      <feComposite operator="in" in2="blur-2"/>
      <feComposite in="SourceGraphic"/>
    </filter>
  </defs>
  <g id="Component_22_1" data-name="Component 22 – 1" transform="translate(15 7)">
    <g transform="matrix(1, 0, 0, 1, -15, -7)" filter="url(#Path_11408)">
      <path id="Path_11408-2" data-name="Path 11408" d="M89.064,51.1C23.287,58.641-21.192,86.76,10.39,185.925s96.087,94.9,126.764,138.766,2.351,108.9,54.769,130.423,123.1,51.839,153.779,12.641,131.153-10.4,151.134-86.129,10.288-116.92-18.635-172.489-37.517-82.4-85.7-94.128S336.749,102.8,301.319,61.348s-50-72.255-98.457-57.676S154.842,43.549,89.064,51.1Z" transform="translate(51.98 446.39) rotate(-60)" fill="#f82626" opacity="0.9"/>
    </g>
    <g transform="matrix(1, 0, 0, 1, -15, -7)" filter="url(#Path_11409)">
      <path id="Path_11409-2" data-name="Path 11409" d="M76.321,65.987C15.152,91.918-7.7,199.483,2.244,262.547s72.984,34.874,122.65,91.123-2.844,86.481,50.447,108.367S306.3,475.07,337.485,435.219s127.527,29.094,147.84-47.894S495.784,268.46,466.38,211.967s-38.141-83.769-87.123-95.694S311.143,113.739,275.123,71.6s-39.4-83.335-88.663-68.514S137.491,40.055,76.321,65.987Z" transform="translate(263.01 704.71) rotate(-120)" fill="#fff"/>
    </g>
    <g id="undraw_ideas_flow_re_bmea" transform="translate(231.303 185.238)">
      <path id="Path_11354" data-name="Path 11354" d="M405.165,724.047a.662.662,0,0,0,.66.664H621.917a.664.664,0,0,0,0-1.328H405.829a.662.662,0,0,0-.664.66Z" transform="translate(-405.165 -416.988)" fill="#ccc"/>
      <path id="Path_11355" data-name="Path 11355" d="M559.1,559.882a24.73,24.73,0,0,1,7.157-.388.843.843,0,0,0,.837-.837.854.854,0,0,0-.837-.837,26.285,26.285,0,0,0-7.6.448.837.837,0,1,0,.445,1.614Z" transform="translate(-472.743 -343.757)" fill="#ccc" opacity="0.5" style="isolation: isolate"/>
      <path id="Path_11356" data-name="Path 11356" d="M451.062,512.868a34.493,34.493,0,0,1-7.35-20.772,1.684,1.684,0,0,1,1.025-2.147l15.687-5.551a1.684,1.684,0,0,1,2.147,1.025l7.35,20.772a1.684,1.684,0,0,1-1.025,2.147l-15.687,5.551A1.684,1.684,0,0,1,451.062,512.868Z" transform="translate(-422.162 -311.302)" fill="#f2f2f2"/>
      <path id="Path_11357" data-name="Path 11357" d="M454.6,516.885a1.684,1.684,0,0,1-2.147-1.025,34.492,34.492,0,0,1-7.35-20.772,1.662,1.662,0,0,1-.061-.861l-.309.109a1.684,1.684,0,0,0-1.025,2.147,34.492,34.492,0,0,0,7.35,20.772,1.684,1.684,0,0,0,2.147,1.025L468.9,512.73a1.676,1.676,0,0,0,1.086-1.286Z" transform="translate(-422.162 -315.689)" opacity="0.2" style="isolation: isolate"/>
      <path id="Path_11358" data-name="Path 11358" d="M467.452,505.942l-10.5,3.749a.669.669,0,1,1-.45-1.26l10.5-3.749a.669.669,0,1,1,.45,1.26Z" transform="translate(-427.661 -320.293)" fill="#fff"/>
      <path id="Path_11359" data-name="Path 11359" d="M457.048,504.989l-2.31.825a.669.669,0,1,1-.454-1.259h0l2.31-.825a.669.669,0,1,1,.45,1.26Z" transform="translate(-426.682 -319.872)" fill="#fff"/>
      <path id="Path_11360" data-name="Path 11360" d="M471,515.871l-10.5,3.749a.669.669,0,0,1-.45-1.26l10.5-3.749A.669.669,0,1,1,471,515.87Z" transform="translate(-429.228 -324.682)" fill="#fff"/>
      <path id="Path_11361" data-name="Path 11361" d="M469.224,510.907l-10.5,3.749a.669.669,0,1,1-.451-1.26h0l10.5-3.749a.669.669,0,1,1,.45,1.26Z" transform="translate(-428.444 -322.488)" fill="#fff"/>
      <circle id="Ellipse_61" data-name="Ellipse 61" cx="2.79" cy="2.79" r="2.79" transform="translate(27.211 173.283)" fill="#ccc"/>
      <path id="Path_11362" data-name="Path 11362" d="M608.311,254.145c.045,4.084,1.345,12.587.413,16.588l-.151-.335a18.354,18.354,0,0,1-2.461,1.646,11.791,11.791,0,0,0-2.734-4.017,14.113,14.113,0,0,1-.653,5.557c-3.487,1.255-9.608-2.7-13.4-2.784-6.1-.139-12.052-1.657-17.882-3.264-2.07-.569-4.346-1.311-5.284-3.03s.74-3.573.63-5.513c-.782-13.812,5.8-16.128,12.057-19.818,1.378-.812,2.053-2.561,3.61-3.242,2.159-.943,4.731-.491,7.08-.017a3.578,3.578,0,0,1-2.366-2.589,3.228,3.228,0,0,1,1.261-3.125,5.815,5.815,0,0,1,4.876-.7,16.3,16.3,0,0,1,4.475,2.2,8.889,8.889,0,0,1,2.455,1.986,2.462,2.462,0,0,1,.29,2.79,3.189,3.189,0,0,1-2.494,1.211,8.348,8.348,0,0,1-2.2-.229,16.723,16.723,0,0,1,8.52,5.155A17.809,17.809,0,0,1,608.311,254.145Z" transform="translate(-476.206 -198.567)" fill="#2f2e41"/>
      <path id="Path_11363" data-name="Path 11363" d="M466.748,338.845a5.11,5.11,0,0,0,6.674,2.5,4.909,4.909,0,0,0,.707-.4l14.367,10.555,7.921-5.405-21.244-12.332a5.1,5.1,0,0,0-6.039-1.5,4.877,4.877,0,0,0-2.442,6.45h0Q466.719,338.785,466.748,338.845Z" transform="translate(-432.172 -243.907)" fill="#ffb6b6"/>
      <path id="Path_11364" data-name="Path 11364" d="M717.631,327.189a5.11,5.11,0,0,0-4.454,5.564,4.9,4.9,0,0,0,.157.8l-14.5,10.37,2.673,9.209,18.328-16.354a5.1,5.1,0,0,0,3.3-5.274,4.877,4.877,0,0,0-5.37-4.327Z" transform="translate(-534.982 -241.83)" fill="#ffb6b6"/>
      <path id="Path_11365" data-name="Path 11365" d="M133.56,519.268l-4.67-.04L126.823,500.8l6.892.058Z" transform="translate(-56.062 -221.378)" fill="#ffb6b6"/>
      <path id="Path_11366" data-name="Path 11366" d="M517.254,713.438a2.091,2.091,0,0,0,2.07,2.106l9.284.077,1.625-3.295.6,3.311,3.5.032-.885-11.81-1.219-.081-4.971-.343-1.6-.107-.028,3.342-7.458,5.059A2.087,2.087,0,0,0,517.254,713.438Z" transform="translate(-454.714 -408.122)" fill="#2f2e41"/>
      <path id="Path_11367" data-name="Path 11367" d="M236.339,484.914l-3.812,2.7L220.08,473.86l5.627-3.98Z" transform="translate(-97.287 -207.711)" fill="#ffb6b6"/>
      <path id="Path_11368" data-name="Path 11368" d="M640.1,683.869a2.09,2.09,0,0,0,2.91.5l7.58-5.362-.606-3.623,2.419,2.339,2.862-2.021-7.619-9.068-1.036.646-4.235,2.627-1.364.85,1.93,2.728-3.1,8.463a2.087,2.087,0,0,0,.256,1.922Z" transform="translate(-508.85 -391.902)" fill="#2f2e41"/>
      <path id="Path_11369" data-name="Path 11369" d="M145.174,241.118l13.564-31.5h31.243l-9.011,32.873Z" transform="translate(-64.174 -92.662)" fill="#ffb6b6"/>
      <path id="Path_11370" data-name="Path 11370" d="M474.956,671.514a1.266,1.266,0,0,1-.918-2.195l.087-.345-.034-.083a3.4,3.4,0,0,0-6.272.023c-1.026,2.471-2.332,4.946-2.654,7.558a10.06,10.06,0,0,0,.177,3.46,40.33,40.33,0,0,1-3.669-16.75,38.925,38.925,0,0,1,.241-4.343q.2-1.773.555-3.521a40.8,40.8,0,0,1,8.09-17.291,10.858,10.858,0,0,0,4.515-4.685,8.284,8.284,0,0,0,.753-2.263,10.22,10.22,0,0,1-.663-3.524c-.306-.465-.855-.7-1.189-1.15-1.664-2.256-3.957-1.862-5.153,1.2-2.557,1.29-2.581,3.43-1.013,5.488,1,1.309,1.135,3.081,2.011,4.483-.09.115-.184.227-.274.342a41.055,41.055,0,0,0-4.286,6.789,17.07,17.07,0,0,0-1.019-7.928c-.975-2.353-2.8-4.335-4.414-6.369a3.5,3.5,0,0,0-6.24,1.72l-.01.09q.359.2.7.43a1.717,1.717,0,0,1-.692,3.125l-.035.005a17.085,17.085,0,0,0,.451,2.555c-2.065,7.987,2.394,10.9,8.761,11.027.141.072.278.144.418.213a41.91,41.91,0,0,0-2.256,10.617,39.75,39.75,0,0,0,.029,6.418l-.011-.076a10.5,10.5,0,0,0-3.586-6.065c-2.759-2.267-6.658-3.1-9.635-4.923a1.971,1.971,0,0,0-3.019,1.918l.012.08a11.541,11.541,0,0,1,1.294.623q.359.2.7.43a1.718,1.718,0,0,1-.692,3.126l-.035.005-.072.011a17.1,17.1,0,0,0,3.146,4.926c1.291,6.973,6.838,7.634,12.772,5.6h0a41.9,41.9,0,0,0,2.814,8.216H474.7c.036-.112.068-.227.1-.339a11.423,11.423,0,0,1-2.782-.166c.746-.915,1.492-1.838,2.238-2.753a.617.617,0,0,0,.047-.054c.378-.468.76-.933,1.139-1.4h0a16.731,16.731,0,0,0-.49-4.263Z" transform="translate(-422.636 -373.483)" fill="#f2f2f2"/>
      <path id="Path_11371" data-name="Path 11371" d="M693.241,671.514a1.266,1.266,0,0,0,.918-2.195l-.087-.345.034-.083a3.4,3.4,0,0,1,6.272.023c1.026,2.471,2.332,4.946,2.653,7.558a10.056,10.056,0,0,1-.177,3.459,40.329,40.329,0,0,0,3.669-16.75,38.923,38.923,0,0,0-.241-4.342q-.2-1.773-.555-3.521a40.8,40.8,0,0,0-8.09-17.291,10.857,10.857,0,0,1-4.516-4.685,8.28,8.28,0,0,1-.753-2.263,10.221,10.221,0,0,0,.663-3.524c.306-.465.855-.7,1.189-1.15,1.664-2.256,3.957-1.862,5.153,1.2,2.557,1.29,2.581,3.43,1.013,5.488-1,1.309-1.135,3.081-2.011,4.483.09.115.184.227.274.342a41.058,41.058,0,0,1,4.286,6.789,17.07,17.07,0,0,1,1.019-7.928c.975-2.353,2.8-4.335,4.414-6.369a3.5,3.5,0,0,1,6.24,1.72c0,.03.007.06.01.09q-.359.2-.7.43a1.717,1.717,0,0,0,.692,3.125l.035.005a17.086,17.086,0,0,1-.45,2.555c2.065,7.987-2.394,10.9-8.761,11.027-.141.072-.277.144-.418.213A41.914,41.914,0,0,1,707.27,660.2a39.757,39.757,0,0,1-.029,6.418l.011-.076a10.5,10.5,0,0,1,3.586-6.065c2.759-2.267,6.658-3.1,9.635-4.923a1.971,1.971,0,0,1,3.019,1.918l-.012.08a11.542,11.542,0,0,0-1.294.623q-.359.2-.7.43a1.718,1.718,0,0,0,.692,3.126l.035.005.072.011a17.1,17.1,0,0,1-3.146,4.926c-1.291,6.973-6.838,7.634-12.772,5.6h0a41.9,41.9,0,0,1-2.814,8.216H693.493c-.036-.112-.068-.227-.1-.339a11.423,11.423,0,0,0,2.782-.166c-.746-.915-1.492-1.838-2.238-2.753a.616.616,0,0,1-.047-.054c-.378-.469-.76-.933-1.139-1.4h0a16.734,16.734,0,0,1,.49-4.263Z" transform="translate(-532.124 -373.483)" fill="#f2f2f2"/>
      <path id="Path_11372" data-name="Path 11372" d="M539.67,436.071,526.2,464.165l.961,111.956H538.7s2.243-3.025,2.243-5.144-3.815-2.427-1.272-5.028,3.391-3.449,3.391-5.993V519.268l9.095-39.442-.961,43.338,32.682,39.006,7.613-7.613s2.226-.981,0-3.089-3.615,1.615-3.768-4.273,1.118-4.617-.154-5.888-19.071-22.52-19.071-22.52,16.1-68.613,8.05-81.753Z" transform="translate(-458.67 -289.981)" fill="#2f2e41"/>
      <path id="Path_11373" data-name="Path 11373" d="M588.6,379.8s-34.758-12.292-32.214-19.074,6.815-5.477,1.712-7.613-8.484-2.56-5.31-5.527,7.837-5.934,7.837-8.9,3.815-26.28,3.815-26.28h6.107l6.185-10.6h8.738l4.4,9.749h9.3l.454,14.836s.6,28.66-2.243,29.8-5.387,1.141-2.844,3.685,3.992,3.858,2.844,6.168S588.6,379.8,588.6,379.8Z" transform="translate(-469.878 -230.63)" fill="#e6e6e6"/>
      <path id="Path_11374" data-name="Path 11374" d="M627.069,323.52l5.48-4.239s9.355,0,10.627,5.086,8.925,17.525,8.925,17.525,7.606-4.385,10.573-4.385,5.086,2.119,5.086-.424-1.7-2.967.848-2.967,9.325-2.543,9.325-2.543l7.234,7.234s-.876,6.754-3.843,6.33-4.663-2.543-4.663,0,1.7,6.358-2.119,6.782S645.3,358.7,645.3,358.7l-17.379-25.432Z" transform="translate(-503.258 -238.354)" fill="#e6e6e6"/>
      <path id="Path_11375" data-name="Path 11375" d="M541.534,323.52l-5.48-4.239s-9.355,0-10.627,5.086-9.352,17.525-9.352,17.525-7.179-4.385-10.146-4.385-5.086,2.119-5.086-.424,1.7-2.967-.848-2.967-9.325-2.543-9.325-2.543l-7.234,7.234s.876,6.754,3.843,6.33,4.663-2.543,4.663,0-1.7,6.358,2.119,6.782,29.247,6.782,29.247,6.782l17.379-25.432Z" transform="translate(-439.764 -238.354)" fill="#e6e6e6"/>
      <circle id="Ellipse_62" data-name="Ellipse 62" cx="13.527" cy="13.527" r="13.527" transform="translate(96.682 41.822)" fill="#ffb6b6"/>
      <path id="Path_11376" data-name="Path 11376" d="M605.513,255.815c-1.59,1.925-3.956,1.824-6.059,1.518-.664-.095-1.328-.2-1.992-.324-.117-.374-.251-.748-.4-1.11a11.791,11.791,0,0,0-2.734-4.017,13.9,13.9,0,0,1-.34,4.425q-1.85-.427-3.682-.954a4.271,4.271,0,0,1-3.56-4.687c-1.758,1.339-3.671,2.5-5.68,2.522a5.3,5.3,0,0,1-4.966-3.867,12.764,12.764,0,0,1-.24-5.412c.268-2.148.87-4.508,2.321-5.373,1.166-.7,2.511-.2,3.71.368a42.744,42.744,0,0,1,7.477,4.586l.028.586c.6-2.885,2.594-5.111,4.765-5.334a8.177,8.177,0,0,1,4.268,1.211,20.13,20.13,0,0,1,4.971,3.13,11.079,11.079,0,0,1,3.359,5.786C607.277,251.285,606.886,254.153,605.513,255.815Z" transform="translate(-480.544 -202.508)" fill="#2f2e41"/>
      <path id="Path_11377" data-name="Path 11377" d="M602.327,232.354c.139.012-.2-.067-.091-.02a1.108,1.108,0,0,1-.156-.087c-.008-.005-.118-.094-.047-.032a1.086,1.086,0,0,1-.359-.5,4.5,4.5,0,0,1-.212-1.49,4.713,4.713,0,0,0-.332-1.943,1.16,1.16,0,0,0-1.827-.408,2.7,2.7,0,0,0-.525,1.806,5.818,5.818,0,0,0,.2,1.854,5.318,5.318,0,0,0,1.628,2.557,5.563,5.563,0,0,0,3.223,1.36.845.845,0,0,0,.592-1.429l-1.5-1.422a.837.837,0,1,0-1.184,1.184l1.5,1.422.592-1.429a3.329,3.329,0,0,1-.727-.149,2.8,2.8,0,0,1-.726-.318,3.477,3.477,0,0,1-.619-.432,4.777,4.777,0,0,1-.347-.338q-.06-.065-.117-.131s-.158-.2-.089-.106a4.718,4.718,0,0,1-.45-.754,1.9,1.9,0,0,1-.11-.291,4.406,4.406,0,0,1-.13-.5,4.347,4.347,0,0,1-.057-1.078,4.414,4.414,0,0,1,.046-.456,1.8,1.8,0,0,0,.047-.243c0-.2-.028.109-.134.156l-.422.114a.46.46,0,0,1-.344-.2q-.026-.1.015.037a2.736,2.736,0,0,1,.074.338,7.911,7.911,0,0,1,.056.8,7.958,7.958,0,0,0,.2,1.683,2.7,2.7,0,0,0,2.342,2.122.844.844,0,0,0,.837-.837.854.854,0,0,0-.837-.837Z" transform="translate(-490.748 -197.819)" fill="#2f2e41"/>
      <path id="Path_11378" data-name="Path 11378" d="M723.062,310.868a34.492,34.492,0,0,1-7.35-20.772,1.684,1.684,0,0,1,1.025-2.147l15.687-5.551a1.684,1.684,0,0,1,2.147,1.025l7.35,20.772a1.684,1.684,0,0,1-1.025,2.147l-15.687,5.551a1.684,1.684,0,0,1-2.147-1.025Z" transform="translate(-542.4 -222.007)" fill="#f82626"/>
      <path id="Path_11379" data-name="Path 11379" d="M726.6,314.885a1.684,1.684,0,0,1-2.147-1.025,34.492,34.492,0,0,1-7.35-20.772,1.662,1.662,0,0,1-.061-.861l-.309.109a1.684,1.684,0,0,0-1.025,2.147,34.492,34.492,0,0,0,7.35,20.772,1.684,1.684,0,0,0,2.147,1.025L740.9,310.73a1.676,1.676,0,0,0,1.086-1.286Z" transform="translate(-542.4 -226.395)" opacity="0.2" style="isolation: isolate"/>
      <path id="Path_11380" data-name="Path 11380" d="M739.452,303.942l-10.5,3.749a.669.669,0,0,1-.45-1.26l10.5-3.749a.669.669,0,1,1,.45,1.26Z" transform="translate(-547.899 -230.999)" fill="#fff"/>
      <path id="Path_11381" data-name="Path 11381" d="M729.049,302.989l-2.31.825a.669.669,0,1,1-.451-1.26h0l2.31-.825a.669.669,0,1,1,.45,1.26Z" transform="translate(-546.922 -230.577)" fill="#fff"/>
      <path id="Path_11382" data-name="Path 11382" d="M743,313.872l-10.5,3.749a.669.669,0,0,1-.451-1.26h0l10.5-3.749a.669.669,0,1,1,.45,1.26Z" transform="translate(-549.466 -235.388)" fill="#fff"/>
      <path id="Path_11383" data-name="Path 11383" d="M741.224,308.907l-10.5,3.749a.669.669,0,1,1-.451-1.26h0l10.5-3.749a.669.669,0,1,1,.451,1.26Z" transform="translate(-548.682 -233.193)" fill="#fff"/>
      <circle id="Ellipse_63" data-name="Ellipse 63" cx="2.79" cy="2.79" r="2.79" transform="translate(178.973 60.577)" fill="#3f3d56"/>
      <path id="Path_11384" data-name="Path 11384" d="M483.74,191.99A34.492,34.492,0,0,1,497.6,174.86a1.684,1.684,0,0,1,2.366-.25L512.9,185.076a1.684,1.684,0,0,1,.25,2.366l-13.858,17.13a1.684,1.684,0,0,1-2.366.25L483.99,194.356a1.684,1.684,0,0,1-.25-2.366Z" transform="translate(-439.734 -174.237)" fill="#f82626"/>
      <path id="Path_11385" data-name="Path 11385" d="M485.909,194.815a1.684,1.684,0,0,1-.25-2.366,34.492,34.492,0,0,1,13.858-17.13,1.663,1.663,0,0,1,.7-.5l-.255-.206a1.684,1.684,0,0,0-2.366.25,34.492,34.492,0,0,0-13.858,17.13,1.684,1.684,0,0,0,.25,2.366l12.937,10.466a1.677,1.677,0,0,0,1.664.253Z" transform="translate(-439.734 -174.237)" opacity="0.2" style="isolation: isolate"/>
      <path id="Path_11386" data-name="Path 11386" d="M511.48,201.287l-8.689-6.99a.669.669,0,1,1,.839-1.043l8.689,6.99a.669.669,0,0,1-.839,1.043Z" transform="translate(-448.21 -182.578)" fill="#fff"/>
      <path id="Path_11387" data-name="Path 11387" d="M508.825,190.711l-1.911-1.538a.669.669,0,1,1,.839-1.043l1.911,1.538a.669.669,0,1,1-.839,1.043Z" transform="translate(-450.032 -180.313)" fill="#fff"/>
      <path id="Path_11388" data-name="Path 11388" d="M504.871,209.5l-8.689-6.99a.669.669,0,1,1,.839-1.043l8.689,6.99a.669.669,0,0,1-.839,1.043Z" transform="translate(-445.289 -186.21)" fill="#fff"/>
      <path id="Path_11389" data-name="Path 11389" d="M508.174,205.394l-8.689-6.989a.669.669,0,1,1,.836-1.045l0,0,8.689,6.99a.669.669,0,1,1-.836,1.045l0,0Z" transform="translate(-446.749 -184.393)" fill="#fff"/>
      <circle id="Ellipse_64" data-name="Ellipse 64" cx="2.79" cy="2.79" r="2.79" transform="translate(63.52 2.566)" fill="#3f3d56"/>
      <path id="Path_11390" data-name="Path 11390" d="M417.957,322.061c-6.808-9.055-10.742-19.181-10.871-30.725a2.491,2.491,0,0,1,1.516-3.176l23.2-8.21a2.491,2.491,0,0,1,3.175,1.516l10.871,30.725a2.491,2.491,0,0,1-1.516,3.175l-23.2,8.21A2.491,2.491,0,0,1,417.957,322.061Z" transform="translate(-405.951 -220.905)" fill="#f82626"/>
      <path id="Path_11391" data-name="Path 11391" d="M423.2,328a2.491,2.491,0,0,1-3.175-1.516c-6.808-9.055-10.742-19.18-10.871-30.725a2.459,2.459,0,0,1-.091-1.274l-.457.162a2.491,2.491,0,0,0-1.516,3.175c.129,11.544,4.064,21.67,10.871,30.725a2.491,2.491,0,0,0,3.175,1.516l23.2-8.21a2.48,2.48,0,0,0,1.607-1.9Z" transform="translate(-405.951 -227.395)" opacity="0.2" style="isolation: isolate"/>
      <path id="Path_11392" data-name="Path 11392" d="M442.2,311.817l-15.534,5.545A.99.99,0,0,1,426,315.5l15.534-5.545a.99.99,0,1,1,.665,1.864Z" transform="translate(-414.085 -234.204)" fill="#fff"/>
      <path id="Path_11393" data-name="Path 11393" d="M426.814,310.407l-3.417,1.22a.99.99,0,1,1-.665-1.864h0l3.418-1.22a.99.99,0,0,1,.665,1.864Z" transform="translate(-412.64 -233.581)" fill="#fff"/>
      <path id="Path_11394" data-name="Path 11394" d="M447.444,326.5l-15.534,5.545a.99.99,0,1,1-.665-1.864h0l15.534-5.545a.99.99,0,0,1,.665,1.864Z" transform="translate(-416.403 -240.697)" fill="#fff"/>
      <path id="Path_11395" data-name="Path 11395" d="M444.822,319.16l-15.534,5.545a.99.99,0,1,1-.665-1.864h0l15.534-5.545a.99.99,0,1,1,.665,1.864Z" transform="translate(-415.244 -237.451)" fill="#fff"/>
      <circle id="Ellipse_65" data-name="Ellipse 65" cx="4.126" cy="4.126" r="4.126" transform="translate(9.508 59.321)" fill="#3f3d56"/>
      <path id="Path_11396" data-name="Path 11396" d="M683.569,602.544a34.492,34.492,0,0,1-20.986-6.714,1.684,1.684,0,0,1-1.09-2.115l5.071-15.849a1.684,1.684,0,0,1,2.115-1.09l20.986,6.714a1.684,1.684,0,0,1,1.089,2.115l-5.071,15.849A1.684,1.684,0,0,1,683.569,602.544Z" transform="translate(-518.44 -352.145)" fill="#f2f2f2"/>
      <path id="Path_11397" data-name="Path 11397" d="M685.417,605.257a1.684,1.684,0,0,1-2.115,1.089,34.492,34.492,0,0,1-20.986-6.714,1.663,1.663,0,0,1-.723-.472l-.1.312a1.684,1.684,0,0,0,1.089,2.115A34.492,34.492,0,0,0,683.57,608.3a1.684,1.684,0,0,0,2.115-1.09l5.071-15.849a1.677,1.677,0,0,0-.367-1.643Z" transform="translate(-518.44 -357.902)" opacity="0.2" style="isolation: isolate"/>
      <path id="Path_11398" data-name="Path 11398" d="M686.511,589.53l-3.369,10.63a.669.669,0,0,1-1.277-.4l0-.005,3.369-10.63a.669.669,0,1,1,1.276.4Z" transform="translate(-527.467 -357.433)" fill="#fff"/>
      <path id="Path_11399" data-name="Path 11399" d="M677.614,602.4l-.741,2.339a.669.669,0,1,1-1.277-.4l0-.005.741-2.339a.669.669,0,0,1,1.277.4Z" transform="translate(-524.696 -363.122)" fill="#fff"/>
      <path id="Path_11400" data-name="Path 11400" d="M696.562,592.713l-3.369,10.63a.669.669,0,0,1-1.277-.4l0-.005,3.369-10.63a.669.669,0,1,1,1.277.4Z" transform="translate(-531.91 -358.839)" fill="#fff"/>
      <path id="Path_11401" data-name="Path 11401" d="M691.536,591.121l-3.369,10.63a.669.669,0,0,1-1.277-.4l0-.005,3.369-10.63a.669.669,0,1,1,1.277.4Z" transform="translate(-529.689 -358.135)" fill="#fff"/>
      <circle id="Ellipse_66" data-name="Ellipse 66" cx="2.79" cy="2.79" r="2.79" transform="translate(142.706 231.31)" fill="#ccc"/>
      <ellipse id="Ellipse_67" data-name="Ellipse 67" cx="2.009" cy="2.888" rx="2.009" ry="2.888" transform="translate(200.818 125.701) rotate(-75.779)" fill="#fff"/>
      <ellipse id="Ellipse_68" data-name="Ellipse 68" cx="2.009" cy="2.888" rx="2.009" ry="2.888" transform="translate(181.935 125.58) rotate(-75.779)" fill="#3f3d56"/>
      <ellipse id="Ellipse_69" data-name="Ellipse 69" cx="2.009" cy="2.888" rx="2.009" ry="2.888" transform="translate(204.361 141.368) rotate(-75.779)" fill="#ff6584"/>
      <ellipse id="Ellipse_70" data-name="Ellipse 70" cx="1.825" cy="1.27" rx="1.825" ry="1.27" transform="translate(212.13 148.278) rotate(-83.624)" fill="#e6e6e6"/>
      <ellipse id="Ellipse_71" data-name="Ellipse 71" cx="1.825" cy="1.27" rx="1.825" ry="1.27" transform="translate(213.683 160.111) rotate(-83.624)" fill="#3f3d56"/>
      <ellipse id="Ellipse_72" data-name="Ellipse 72" cx="1.825" cy="1.27" rx="1.825" ry="1.27" transform="translate(194.378 137.561) rotate(-83.624)" fill="#e6e6e6"/>
      <ellipse id="Ellipse_73" data-name="Ellipse 73" cx="1.825" cy="1.27" rx="1.825" ry="1.27" transform="translate(203.88 133.991) rotate(-83.624)" fill="#ff6584"/>
      <ellipse id="Ellipse_74" data-name="Ellipse 74" cx="1.825" cy="1.27" rx="1.825" ry="1.27" transform="translate(192.173 124.346) rotate(-83.624)" fill="#3f3d56"/>
      <ellipse id="Ellipse_75" data-name="Ellipse 75" cx="2.009" cy="2.888" rx="2.009" ry="2.888" transform="translate(24.506 119.006) rotate(-75.779)" fill="#fff"/>
      <ellipse id="Ellipse_76" data-name="Ellipse 76" cx="2.009" cy="2.888" rx="2.009" ry="2.888" transform="translate(5.623 118.885) rotate(-75.779)" fill="#3f3d56"/>
      <ellipse id="Ellipse_77" data-name="Ellipse 77" cx="2.009" cy="2.888" rx="2.009" ry="2.888" transform="translate(28.049 134.673) rotate(-75.779)" fill="#ff6584"/>
      <ellipse id="Ellipse_78" data-name="Ellipse 78" cx="1.825" cy="1.27" rx="1.825" ry="1.27" transform="translate(35.818 141.583) rotate(-83.624)" fill="#e6e6e6"/>
      <ellipse id="Ellipse_79" data-name="Ellipse 79" cx="1.825" cy="1.27" rx="1.825" ry="1.27" transform="translate(37.371 153.416) rotate(-83.624)" fill="#3f3d56"/>
      <ellipse id="Ellipse_80" data-name="Ellipse 80" cx="1.825" cy="1.27" rx="1.825" ry="1.27" transform="translate(18.065 130.866) rotate(-83.624)" fill="#e6e6e6"/>
      <ellipse id="Ellipse_81" data-name="Ellipse 81" cx="1.825" cy="1.27" rx="1.825" ry="1.27" transform="translate(27.568 127.296) rotate(-83.624)" fill="#ff6584"/>
      <ellipse id="Ellipse_82" data-name="Ellipse 82" cx="1.825" cy="1.27" rx="1.825" ry="1.27" transform="translate(15.861 117.651) rotate(-83.624)" fill="#3f3d56"/>
      <path id="Path_11402" data-name="Path 11402" d="M670.062,459.868a34.492,34.492,0,0,1-7.35-20.772,1.684,1.684,0,0,1,1.025-2.147l15.687-5.551a1.684,1.684,0,0,1,2.147,1.025l7.35,20.772a1.684,1.684,0,0,1-1.025,2.147l-15.687,5.551A1.684,1.684,0,0,1,670.062,459.868Z" transform="translate(-518.972 -287.873)" fill="#f2f2f2"/>
      <path id="Path_11403" data-name="Path 11403" d="M673.6,463.885a1.684,1.684,0,0,1-2.147-1.025,34.492,34.492,0,0,1-7.35-20.772,1.663,1.663,0,0,1-.061-.861l-.309.109a1.684,1.684,0,0,0-1.025,2.147,34.492,34.492,0,0,0,7.35,20.772,1.684,1.684,0,0,0,2.147,1.025L687.9,459.73a1.677,1.677,0,0,0,1.086-1.286Z" transform="translate(-518.972 -292.26)" opacity="0.2" style="isolation: isolate"/>
      <path id="Path_11404" data-name="Path 11404" d="M686.452,452.942l-10.5,3.749a.669.669,0,1,1-.45-1.26l10.5-3.749a.669.669,0,0,1,.45,1.26Z" transform="translate(-524.471 -296.864)" fill="#fff"/>
      <path id="Path_11405" data-name="Path 11405" d="M676.049,451.989l-2.31.825a.669.669,0,1,1-.451-1.26h0l2.31-.825a.669.669,0,0,1,.45,1.26Z" transform="translate(-523.493 -296.443)" fill="#fff"/>
      <path id="Path_11406" data-name="Path 11406" d="M690,462.872l-10.5,3.749a.669.669,0,0,1-.451-1.26h0l10.5-3.749a.669.669,0,1,1,.45,1.26Z" transform="translate(-526.037 -301.254)" fill="#fff"/>
      <path id="Path_11407" data-name="Path 11407" d="M688.224,457.907l-10.5,3.749a.669.669,0,1,1-.451-1.26h0l10.5-3.749a.669.669,0,0,1,.451,1.26Z" transform="translate(-525.254 -299.059)" fill="#fff"/>
      <circle id="Ellipse_83" data-name="Ellipse 83" cx="2.79" cy="2.79" r="2.79" transform="translate(149.402 143.712)" fill="#ccc"/>
    </g>
  </g>
</svg>
