<svg id="Icon_awesome-user-check" data-name="Icon awesome-user-check" xmlns="http://www.w3.org/2000/svg" width="18.75" height="15" viewBox="0 0 18.75 15">
  <path id="Icon_awesome-user-check-2" data-name="Icon awesome-user-check" d="M6.563,7.5a3.75,3.75,0,1,0-3.75-3.75A3.75,3.75,0,0,0,6.563,7.5Zm2.625.938H8.7a5.1,5.1,0,0,1-4.271,0H3.937A3.939,3.939,0,0,0,0,12.375v1.219A1.407,1.407,0,0,0,1.406,15H11.719a1.407,1.407,0,0,0,1.406-1.406V12.375A3.939,3.939,0,0,0,9.188,8.438ZM18.65,4.676l-.814-.823a.347.347,0,0,0-.492,0L14.273,6.9,12.94,5.555a.347.347,0,0,0-.492,0l-.823.817a.347.347,0,0,0,0,.492l2.394,2.411a.347.347,0,0,0,.492,0l4.14-4.107a.35.35,0,0,0,0-.492Z" fill="#ff2d2e"/>
</svg>
