<svg xmlns="http://www.w3.org/2000/svg" xmlns:xlink="http://www.w3.org/1999/xlink" width="790.731" height="782.896" viewBox="0 0 790.731 782.896">
  <defs>
    <filter id="Path_11409" x="5.059" y="71.015" width="770.635" height="639.678" filterUnits="userSpaceOnUse">
      <feOffset dy="8" input="SourceAlpha"/>
      <feGaussianBlur stdDeviation="5" result="blur"/>
      <feFlood flood-opacity="0.4"/>
      <feComposite operator="in" in2="blur"/>
      <feComposite in="SourceGraphic"/>
    </filter>
    <filter id="Path_11408" x="0" y="0" width="790.731" height="782.896" filterUnits="userSpaceOnUse">
      <feOffset dy="8" input="SourceAlpha"/>
      <feGaussianBlur stdDeviation="5" result="blur-2"/>
      <feFlood flood-opacity="0.2"/>
      <feComposite operator="in" in2="blur-2"/>
      <feComposite in="SourceGraphic"/>
    </filter>
  </defs>
  <g id="Component_25_1" data-name="Component 25 – 1" transform="translate(15 7)">
    <g transform="matrix(1, 0, 0, 1, -15, -7)" filter="url(#Path_11409)">
      <path id="Path_11409-2" data-name="Path 11409" d="M175.2,362.877C108.75,340.366-12.579,148.255-.787,90.56S153,98.47,208.086,46.252,247.284,102.214,329,27.87,437.317,16.82,470.8,52.582s139.747-28.9,160.811,40.929,9.685,108.2-23.266,160.267-42.895,77.1-96.582,88.885-74.451,3.576-114.419,42.676-44.267,76.728-97.866,64.127S241.644,385.388,175.2,362.877Z" transform="matrix(0.97, -0.26, 0.26, 0.97, 23.33, 250.74)" fill="#f82626" opacity="0.9"/>
    </g>
    <g transform="matrix(1, 0, 0, 1, -15, -7)" filter="url(#Path_11408)">
      <path id="Path_11408-2" data-name="Path 11408" d="M111.2,510.176c-71.474-10.8-120.586-44.906-89.751-159.46S122.264,243.1,153.991,192.933s-1.145-126.78,54.879-150.259S340.4-13.962,374.941,32.635,517.3,48.749,541.5,137.572s15.1,136.513-14.331,200.362-37.827,94.841-89.6,107.037-59.953,12.522-96.909,59.73-51.689,82.645-104.646,64.186S182.67,520.972,111.2,510.176Z" transform="translate(284.78 774.91) rotate(-120)" fill="#fff"/>
    </g>
    <g id="undraw_public_discussion_re_w9up" transform="translate(119.413 232.322)">
      <path id="Path_11412" data-name="Path 11412" d="M760.666,626.033l-5.815,9.143,3.387-11.9c-7.152-7.463-17.053-12.922-17.053-12.922s-12.192,20.037-8.91,32.363,11.754,14.678,20.793,12.272,15.22-8.661,11.939-20.986A22.372,22.372,0,0,0,760.666,626.033Z" transform="translate(-413.198 -401.327)" fill="#f2f2f2"/>
      <path id="Path_11413" data-name="Path 11413" d="M761.928,635.3l.162.608c1.844,7.072,2.12,12.9.816,17.4-.018.066-.04.13-.057.2l-.3-.09-.291-.09c1.477-4.88.818-11.046-.789-17.215-.05-.2-.1-.4-.157-.6-.7-2.605-1.565-5.2-2.5-7.695-.071-.194-.146-.39-.22-.586-1.255-3.286-2.626-6.38-3.9-9.047-.089-.189-.181-.377-.272-.562-2.169-4.505-4.007-7.7-4.421-8.4-.049-.087-.078-.134-.084-.145l.264-.157,0,0,.267-.158c.006.011.1.169.272.465.639,1.105,2.336,4.116,4.292,8.162.087.183.179.371.268.56,1.033,2.163,2.129,4.6,3.171,7.179q.394.972.754,1.925c.078.2.152.391.223.585Q760.946,631.672,761.928,635.3Z" transform="translate(-422.154 -400.539)" fill="#fff"/>
      <path id="Path_11414" data-name="Path 11414" d="M750.337,623.263c-.194.081-.392.162-.594.239a17.15,17.15,0,0,1-1.673.539,16.7,16.7,0,0,1-7.4.282l-.254.583a17.323,17.323,0,0,0,7.811-.263,17.776,17.776,0,0,0,1.785-.578c.2-.075.4-.157.59-.241a17.172,17.172,0,0,0,4.41-2.73l-.509-.386a16.648,16.648,0,0,1-4.17,2.556Z" transform="translate(-417.482 -406.423)" fill="#fff"/>
      <path id="Path_11415" data-name="Path 11415" d="M752.51,639.564q-.307.1-.618.184c-.062.02-.129.037-.192.054a16.791,16.791,0,0,1-15.17-3.411c-.073.21-.146.419-.215.631a17.414,17.414,0,0,0,15.545,3.382c.084-.022.168-.045.252-.07.21-.059.416-.12.621-.185a17.322,17.322,0,0,0,8.085-5.5c-.143-.152-.287-.3-.434-.455a16.675,16.675,0,0,1-7.875,5.372Z" transform="translate(-415.463 -413.06)" fill="#fff"/>
      <path id="Path_11416" data-name="Path 11416" d="M753.984,652.914c-.206.074-.413.142-.621.207-.223.069-.447.135-.673.2a16.836,16.836,0,0,1-18.714-7.553c-.07.28-.142.556-.206.834a17.453,17.453,0,0,0,19.081,7.32c.226-.06.45-.123.67-.194s.419-.131.626-.2a17.4,17.4,0,0,0,9.656-8.371c-.122-.206-.253-.406-.384-.609a16.782,16.782,0,0,1-9.433,8.373Z" transform="translate(-414.21 -418.153)" fill="#fff"/>
      <path id="Path_11417" data-name="Path 11417" d="M701.666,216.033l-5.815,9.143,3.387-11.9c-7.152-7.463-17.053-12.922-17.053-12.922s-12.192,20.037-8.91,32.363,11.754,14.678,20.793,12.272,15.22-8.661,11.939-20.986A22.373,22.373,0,0,0,701.666,216.033Z" transform="translate(-384.16 -199.539)" fill="#f2f2f2"/>
      <path id="Path_11418" data-name="Path 11418" d="M702.928,225.3l.162.608c1.844,7.072,2.12,12.9.816,17.4-.018.066-.039.13-.057.2l-.3-.09-.291-.09c1.477-4.88.818-11.046-.789-17.215-.05-.2-.1-.4-.157-.6-.7-2.605-1.565-5.2-2.5-7.695-.071-.194-.146-.39-.22-.586-1.255-3.286-2.626-6.38-3.9-9.047-.089-.189-.181-.377-.272-.562-2.169-4.505-4.007-7.7-4.421-8.4-.049-.087-.078-.134-.084-.145l.264-.157,0,0,.267-.158c.006.011.1.169.272.465.639,1.105,2.336,4.116,4.292,8.162.087.183.179.371.268.56,1.033,2.163,2.129,4.6,3.171,7.179q.394.972.754,1.925c.078.2.152.391.223.585Q701.946,221.672,702.928,225.3Z" transform="translate(-393.116 -198.751)" fill="#fff"/>
      <path id="Path_11419" data-name="Path 11419" d="M691.337,213.263c-.194.081-.392.162-.594.239a17.181,17.181,0,0,1-1.673.539,16.7,16.7,0,0,1-7.4.282l-.254.583a17.321,17.321,0,0,0,7.811-.263,17.769,17.769,0,0,0,1.785-.578c.2-.075.4-.157.59-.241a17.175,17.175,0,0,0,4.411-2.73l-.509-.386a16.646,16.646,0,0,1-4.17,2.556Z" transform="translate(-388.445 -204.635)" fill="#fff"/>
      <path id="Path_11420" data-name="Path 11420" d="M693.51,229.564q-.307.1-.618.184c-.062.02-.129.037-.192.054a16.791,16.791,0,0,1-15.17-3.411c-.073.209-.146.419-.215.631a17.414,17.414,0,0,0,15.545,3.382c.084-.022.168-.045.252-.07.21-.059.416-.12.621-.185a17.323,17.323,0,0,0,8.085-5.5c-.143-.152-.287-.3-.433-.455A16.677,16.677,0,0,1,693.51,229.564Z" transform="translate(-386.425 -211.272)" fill="#fff"/>
      <path id="Path_11421" data-name="Path 11421" d="M694.984,242.914c-.206.074-.413.142-.621.207s-.447.135-.673.2a16.836,16.836,0,0,1-18.714-7.553c-.07.28-.142.556-.206.834a17.453,17.453,0,0,0,19.08,7.32c.226-.06.45-.123.67-.194s.419-.131.626-.2a17.4,17.4,0,0,0,9.656-8.371c-.122-.206-.253-.406-.384-.609A16.782,16.782,0,0,1,694.984,242.914Z" transform="translate(-385.172 -216.366)" fill="#fff"/>
      <path id="Path_11422" data-name="Path 11422" d="M381.082,647.353l-10.836.049,11.845-3.584c2.413-10.051,1.654-21.332,1.654-21.332s-23.448.573-32.044,10-6,17.823.914,24.127,15.513,8.124,24.11-1.3A22.374,22.374,0,0,0,381.082,647.353Z" transform="translate(-223.496 -407.299)" fill="#f2f2f2"/>
      <path id="Path_11423" data-name="Path 11423" d="M375.447,645.867l-.424.464c-4.953,5.374-9.706,8.755-14.2,10.092-.065.021-.13.037-.2.057l-.089-.3-.082-.294c4.9-1.395,9.736-5.282,14.057-9.968.141-.15.284-.3.422-.458,1.812-2,3.53-4.128,5.121-6.265.125-.164.249-.333.374-.5,2.086-2.832,3.948-5.658,5.505-8.168.111-.177.219-.356.326-.533,2.618-4.26,4.31-7.532,4.679-8.26.047-.088.071-.138.077-.149l.275.137h0l.277.139c-.006.011-.087.178-.245.481-.585,1.135-2.2,4.19-4.547,8.023-.107.172-.215.351-.326.528-1.261,2.038-2.716,4.275-4.326,6.548q-.605.857-1.212,1.675c-.122.171-.247.34-.371.5Q377.968,643.08,375.447,645.867Z" transform="translate(-230.479 -406.853)" fill="#fff"/>
      <path id="Path_11424" data-name="Path 11424" d="M405.764,631.543c-.173-.12-.348-.242-.521-.37a17.172,17.172,0,0,1-1.358-1.116,16.7,16.7,0,0,1-4.235-6.071l-.628.1a17.32,17.32,0,0,0,4.443,6.43,17.746,17.746,0,0,0,1.451,1.189c.171.127.346.248.521.366a17.175,17.175,0,0,0,4.681,2.235q.025-.325.05-.637A16.644,16.644,0,0,1,405.764,631.543Z" transform="translate(-249.459 -408.036)" fill="#fff"/>
      <path id="Path_11425" data-name="Path 11425" d="M394.224,641.409q-.251-.2-.489-.421c-.05-.042-.1-.088-.149-.132a16.791,16.791,0,0,1-5.33-14.607c-.216.052-.431.1-.647.16a17.414,17.414,0,0,0,5.557,14.907c.064.059.129.117.2.174.163.145.326.285.491.422a17.322,17.322,0,0,0,9,3.828c.05-.2.1-.406.148-.61a16.675,16.675,0,0,1-8.776-3.722Z" transform="translate(-243.783 -409.151)" fill="#fff"/>
      <path id="Path_11426" data-name="Path 11426" d="M383.058,649.346c-.174-.133-.343-.271-.51-.411s-.355-.3-.528-.461a16.836,16.836,0,0,1-3.76-19.828c-.273.092-.545.181-.813.278a17.453,17.453,0,0,0,4.154,20.01c.172.157.347.312.526.458s.337.282.508.417a17.4,17.4,0,0,0,12.262,3.6c.107-.214.2-.432.3-.653A16.782,16.782,0,0,1,383.058,649.346Z" transform="translate(-238.091 -410.331)" fill="#fff"/>
      <path id="Path_11427" data-name="Path 11427" d="M235.82,466.168h6.226l2.962-24.015h-9.189Z" transform="translate(-114.207 -217.612)" fill="#ffb6b6"/>
      <path id="Path_11428" data-name="Path 11428" d="M340.856,684.19h12.262A7.814,7.814,0,0,1,360.932,692v.254H340.857Z" transform="translate(-220.832 -437.667)" fill="#2f2e41"/>
      <path id="Path_11429" data-name="Path 11429" d="M138.82,466.168h6.226l2.962-24.015h-9.189Z" transform="translate(-66.467 -217.612)" fill="#ffb6b6"/>
      <path id="Path_11430" data-name="Path 11430" d="M243.856,684.19h12.262A7.814,7.814,0,0,1,263.932,692v.254H243.857Z" transform="translate(-173.092 -437.667)" fill="#2f2e41"/>
      <path id="Path_11431" data-name="Path 11431" d="M147.877,295.2l-4.2,3.862-4.729,46.658-3.184,37.152,9.621,1.3,23.336-63.479L185.8,383.868l11.512.3-7.64-82.469Z" transform="translate(-64.966 -145.287)" fill="#2f2e41"/>
      <circle id="Ellipse_84" data-name="Ellipse 84" cx="11.953" cy="11.953" r="11.953" transform="translate(91.237 57.016)" fill="#ffb9b9"/>
      <path id="Path_11432" data-name="Path 11432" d="M289.379,314.582s-1.425,3.084,4.275,1.85c0,0,2.138,1.234,2.138-.617,0,0,2.85,3.084,3.562,1.234s2.137.617,2.137.617l1.425-3.084,1.425,1.85h4.987s1.425-12.335-15.675-11.1-8.688,20.778-8.688,20.778.138-3.508,1.563-1.658S289.379,314.582,289.379,314.582Z" transform="translate(-192.306 -251.163)" fill="#2f2e41"/>
      <path id="Path_11433" data-name="Path 11433" d="M293.094,364.756,276.24,363.7l-15.02,3.984,2.277,38.7-3.984,27.32s21.859,13.362,46.672,2.846l-2.357-6.2s-.081-9.489-2.072-11.346-1.832-17.173-1.832-17.173l7.4-28.458Z" transform="translate(-180.797 -279.934)" fill="#3f3d56"/>
      <path id="Path_11434" data-name="Path 11434" d="M252.565,372.768l-4.012-1.221s-6.249.209-9.5,7.317-5.28,17.265-5.28,17.265l20.635.746Z" transform="translate(-168.13 -283.795)" fill="#3f3d56"/>
      <path id="Path_11435" data-name="Path 11435" d="M355.8,466.9l-.668-41.95-8.915,1.337,1.969,39.745a5.337,5.337,0,1,0,7.614.868Z" transform="translate(-223.472 -310.079)" fill="#ffb9b9"/>
      <path id="Path_11436" data-name="Path 11436" d="M337.607,386.409l5.019-3.655s9.643,7.542,9.676,24.134l-13.453,3.263-7.606-10.94Z" transform="translate(-216.1 -289.311)" fill="#3f3d56"/>
      <path id="Path_11437" data-name="Path 11437" d="M768.568,466.121h6.226l2.962-24.015h-9.189Z" transform="translate(-376.407 -217.589)" fill="#9e616a"/>
      <path id="Path_11438" data-name="Path 11438" d="M873.6,684.143h12.262a7.814,7.814,0,0,1,7.814,7.813v.254H873.6Z" transform="translate(-483.031 -437.644)" fill="#2f2e41"/>
      <path id="Path_11439" data-name="Path 11439" d="M696.005,456.779l5.936,1.878,10.067-22-8.761-2.771Z" transform="translate(-340.695 -213.542)" fill="#9e616a"/>
      <path id="Path_11440" data-name="Path 11440" d="M800.035,672.961l11.69,3.7h0a7.814,7.814,0,0,1,5.093,9.807l-.077.242-19.14-6.054Z" transform="translate(-445.626 -432.141)" fill="#2f2e41"/>
      <path id="Path_11441" data-name="Path 11441" d="M818.833,472.176l-3.455,9.744-.1,52.605-9.8,36.017L817.51,573.9,830.8,539.939l4.261-29.829,5.615,30-.773,35.66h12.619l.953-54.953a120.487,120.487,0,0,0-7.954-45.188h0Z" transform="translate(-449.504 -333.322)" fill="#2f2e41"/>
      <path id="Path_11442" data-name="Path 11442" d="M706.556,195.7h20.4l8.522,8.523,2.546,35.229-30.806,4.957-9.9-33.613,5.389-14.286Z" transform="translate(-341.342 -96.317)" fill="#f82626"/>
      <path id="Path_11443" data-name="Path 11443" d="M669.835,193.662l-31.4-11.816-.818-4.884L657.419,160.2l6.592,4.944L652.062,178.23l21.261.81Z" transform="translate(-311.956 -78.846)" fill="#f82626"/>
      <circle id="Ellipse_85" data-name="Ellipse 85" cx="5.078" cy="5.078" r="5.078" transform="translate(344.193 78.054)" fill="#9e616a"/>
      <path id="Path_11444" data-name="Path 11444" d="M815.424,354.234l2.295-10.348a14.2,14.2,0,1,1,27.732,6.15l-2.295,10.348a1.91,1.91,0,0,1-2.276,1.45l-24.007-5.324a1.91,1.91,0,0,1-1.449-2.276Z" transform="translate(-454.375 -264.703)" fill="#2f2e41"/>
      <circle id="Ellipse_86" data-name="Ellipse 86" cx="10.413" cy="10.413" r="10.413" transform="translate(363.547 73.016)" fill="#9e616a"/>
      <path id="Path_11445" data-name="Path 11445" d="M813.121,346.34a11.248,11.248,0,0,1,13.4-8.536l2.07.459a11.248,11.248,0,0,1,8.536,13.4l-.046.207-4.374-.97-.565-4.508-1.225,4.111-2.26-.5-.285-2.274-.618,2.074-14.68-3.255Z" transform="translate(-453.241 -267.057)" fill="#2f2e41"/>
      <path id="Path_11446" data-name="Path 11446" d="M833.712,367.2a1.88,1.88,0,0,1,.286-1.981c3.118-3.685,7.9-10.712,4.876-16.369l-.217-.407,11.833,2.624-3.94,17.765-11.17-.487a1.949,1.949,0,0,1-.336-.044A1.9,1.9,0,0,1,833.712,367.2Z" transform="translate(-463.318 -272.427)" fill="#2f2e41"/>
      <path id="Path_11447" data-name="Path 11447" d="M608.957,700.077l-490.513.007a.6.6,0,0,1,0-1.209l490.513-.007a.6.6,0,0,1,0,1.209Z" transform="translate(-108.162 -444.891)" fill="#cacaca"/>
      <path id="Path_11448" data-name="Path 11448" d="M438.923,406.472H277.779a9.315,9.315,0,0,0-9.315,9.315v38.755a9.315,9.315,0,0,0,9.315,9.315h2.365v7a2.148,2.148,0,0,0,3.667,1.519l8.521-8.521h146.59a9.315,9.315,0,0,0,9.315-9.315V415.787A9.315,9.315,0,0,0,438.923,406.472Z" transform="translate(-185.203 -300.984)" fill="#e6e6e6"/>
      <path id="Path_11449" data-name="Path 11449" d="M404.843,463.708H282.455a4.5,4.5,0,0,1-4.491-4.491V420.463a4.5,4.5,0,0,1,4.49-4.49H443.6a4.5,4.5,0,0,1,4.491,4.491A43.3,43.3,0,0,1,404.843,463.708Z" transform="translate(-189.878 -305.66)" fill="#fff"/>
      <rect id="Rectangle_874" data-name="Rectangle 874" width="74.144" height="6.094" rx="3.047" transform="translate(136.245 118.692)" fill="#f82626"/>
      <rect id="Rectangle_875" data-name="Rectangle 875" width="103.091" height="6.094" rx="3.047" transform="translate(121.772 130.88)" fill="#e6e6e6"/>
      <rect id="Rectangle_876" data-name="Rectangle 876" width="103.091" height="6.094" rx="3.047" transform="translate(121.772 143.068)" fill="#e6e6e6"/>
      <path id="Path_11450" data-name="Path 11450" d="M936.734,459.608H820.2a6.736,6.736,0,0,0-6.736,6.736v28.026a6.736,6.736,0,0,0,6.736,6.736h1.71v5.063a1.554,1.554,0,0,0,2.652,1.1l6.162-6.162H936.734a6.736,6.736,0,0,0,6.736-6.736V466.345a6.736,6.736,0,0,0-6.736-6.736Z" transform="translate(-453.433 -327.136)" fill="#e6e6e6"/>
      <path id="Path_11451" data-name="Path 11451" d="M940.046,501H823.513a3.322,3.322,0,0,1-3.318-3.318V469.658a3.321,3.321,0,0,1,3.318-3.318H912.02a31.38,31.38,0,0,1,31.344,31.344A3.321,3.321,0,0,1,940.046,501Z" transform="translate(-456.745 -330.449)" fill="#fff"/>
      <rect id="Rectangle_877" data-name="Rectangle 877" width="53.618" height="4.407" rx="2.203" transform="translate(398.348 142.021)" fill="#f82626"/>
      <rect id="Rectangle_878" data-name="Rectangle 878" width="74.551" height="4.407" rx="2.203" transform="translate(387.881 150.835)" fill="#e6e6e6"/>
      <rect id="Rectangle_879" data-name="Rectangle 879" width="74.551" height="4.407" rx="2.203" transform="translate(387.881 159.649)" fill="#e6e6e6"/>
      <path id="Path_11452" data-name="Path 11452" d="M560.2,265.608H676.734a6.736,6.736,0,0,1,6.736,6.736v28.027a6.736,6.736,0,0,1-6.736,6.736h-1.71v5.063a1.553,1.553,0,0,1-2.652,1.1l-6.162-6.162H560.2a6.736,6.736,0,0,1-6.736-6.736V272.345a6.736,6.736,0,0,1,6.736-6.736Z" transform="translate(-325.47 -231.656)" fill="#e6e6e6"/>
      <path id="Path_11453" data-name="Path 11453" d="M680.046,307H591.54A31.38,31.38,0,0,1,560.2,275.658a3.322,3.322,0,0,1,3.318-3.318H680.046a3.321,3.321,0,0,1,3.318,3.318v28.026A3.321,3.321,0,0,1,680.046,307Z" transform="translate(-328.783 -234.969)" fill="#fff"/>
      <rect id="Rectangle_880" data-name="Rectangle 880" width="53.618" height="4.407" rx="2.203" transform="translate(319.684 47.908) rotate(180)" fill="#f82626"/>
      <rect id="Rectangle_881" data-name="Rectangle 881" width="74.551" height="4.407" rx="2.203" transform="translate(330.15 56.722) rotate(180)" fill="#e6e6e6"/>
      <rect id="Rectangle_882" data-name="Rectangle 882" width="74.551" height="4.407" rx="2.203" transform="translate(330.15 65.536) rotate(180)" fill="#e6e6e6"/>
      <path id="Path_11454" data-name="Path 11454" d="M271.688,399.784a5.332,5.332,0,1,0-10.665,0c0,.052.006.1.008.154l-9.352,9.352.711-1.635-10.665-.508-1.556,11.26a5.063,5.063,0,0,0,8.522,4.313l18.435-17.667a5.329,5.329,0,0,0,4.561-5.27Z" transform="translate(-171.256 -295.068)" fill="#ffb9b9"/>
      <path id="Path_11455" data-name="Path 11455" d="M753.847,196.12l33.22,4.723,1.857,4.591-15.7,20.655-7.507-3.4,8.826-15.363-20.93,3.821Z" transform="translate(-369.047 -96.523)" fill="#f82626"/>
      <circle id="Ellipse_87" data-name="Ellipse 87" cx="5.078" cy="5.078" r="5.078" transform="translate(394.469 125.283)" fill="#9e616a"/>
    </g>
  </g>
</svg>
