<svg xmlns="http://www.w3.org/2000/svg" width="14.4" height="16.458" viewBox="0 0 14.4 16.458">
  <path id="Icon_awesome-calendar" data-name="Icon awesome-calendar" d="M.386,6.172H14.015a.387.387,0,0,1,.386.386v8.357a1.543,1.543,0,0,1-1.543,1.543H1.543A1.543,1.543,0,0,1,0,14.915V6.557A.387.387,0,0,1,.386,6.172ZM14.4,4.757V3.6a1.543,1.543,0,0,0-1.543-1.543H11.315V.386A.387.387,0,0,0,10.929,0H9.643a.387.387,0,0,0-.386.386V2.057H5.143V.386A.387.387,0,0,0,4.757,0H3.472a.387.387,0,0,0-.386.386V2.057H1.543A1.543,1.543,0,0,0,0,3.6V4.757a.387.387,0,0,0,.386.386H14.015A.387.387,0,0,0,14.4,4.757Z"/>
</svg>
