<svg xmlns="http://www.w3.org/2000/svg" width="1rem" height="1rem" viewBox="0 0 18 18">
  <path id="Icon_awesome-arrow-alt-circle-left" fill="currentColor" data-name="Icon awesome-arrow-alt-circle-left" class="cls-1" d="M9.563,18.562a9,9,0,1,1,9-9A9,9,0,0,1,9.563,18.562Zm4.21-10.6H9.563V5.393a.436.436,0,0,0-.744-.308L4.671,9.254a.432.432,0,0,0,0,.613l4.148,4.17a.435.435,0,0,0,.744-.308V11.159h4.21a.437.437,0,0,0,.435-.435V8.4A.437.437,0,0,0,13.772,7.966Z" transform="translate(-0.563 -0.563)"/>
</svg>
