<svg id="Component_54_1" data-name="Component 54 1" xmlns="http://www.w3.org/2000/svg" viewBox="0 0 24 24">
  <path fill="currentColor" id="Subtraction_14" data-name="Subtraction 14" d="M19.10112,24.02419H4.94727A1.23077,1.23077,0,0,1,3.7165,22.79342V1.255A1.23078,1.23078,0,0,1,4.94727.02419H15.75342V4.53681h4.57847v6.53908a10.91292,10.91292,0,0,0-2.328,1.07138l-.01477.008-.05785.03262-.01354.00738c-.32.17846-.59692.33292-.82092.43077l-.04369.01846a4.6367,4.6367,0,0,1-1.68985.53723.49228.49228,0,0,1-.39261-.14154c-.14216-.16061-.16985-.46277-.09539-1.04246a2.056,2.056,0,0,0-.24123-1.46831.816.816,0,0,0-.65108-.27076h-.07815c-.56062.03507-1.432.53723-3.85969,2.87692l.94461-2.36923a1.93293,1.93293,0,0,0-.18892-1.82646,1.96,1.96,0,0,0-1.61908-.872,2.10215,2.10215,0,0,0-1.144.35138L6.7885,9.26542A.35819.35819,0,0,0,6.63219,9.49a.36924.36924,0,0,0,.04616.28123l.39138.61539A.36.36,0,0,0,7.56608,10.5l.004-.00253,1.32185-.88553a.4923.4923,0,0,1,.27323-.08308.51881.51881,0,0,1,.42154.23077.4954.4954,0,0,1,.0523.47015L7.40142,15.83958a.784.784,0,0,0,.08185.70092.6923.6923,0,0,0,.59262.30092.71072.71072,0,0,0,.51384-.21292c1.07016-1.07446,3.57969-3.48923,4.808-4.472a2.38217,2.38217,0,0,0,.47262,1.912,1.91507,1.91507,0,0,0,1.49046.57908,5.66158,5.66158,0,0,0,2.29662-.672l.03076-.01416c.22708-.10276.52739-.27569.8677-.47446l.04615-.02523a11.17149,11.17149,0,0,1,1.72985-.88369V22.79342A1.23077,1.23077,0,0,1,19.10112,24.02419Z"/>
  <path fill="currentColor" id="Subtraction_15" data-name="Subtraction 15" d="M19.95508,3.69231h-3.3397V.35262l3.33908,3.33907Z"/>
</svg>
