<svg xmlns="http://www.w3.org/2000/svg" width="50.247" height="50.247" viewBox="0 0 50.247 50.247">
  <path id="Icon_ionic-ios-checkmark-circle" data-name="Icon ionic-ios-checkmark-circle" d="M28.5,3.375A25.123,25.123,0,1,0,53.622,28.5,25.12,25.12,0,0,0,28.5,3.375ZM41.362,21.553,25.213,37.775H25.2a2.181,2.181,0,0,1-1.4.664,2.115,2.115,0,0,1-1.413-.688l-6.764-6.764a.481.481,0,0,1,0-.688l2.15-2.15a.467.467,0,0,1,.676,0l5.363,5.363L38.548,18.666a.477.477,0,0,1,.338-.145h0a.439.439,0,0,1,.338.145l2.114,2.186A.476.476,0,0,1,41.362,21.553Z" transform="translate(-3.375 -3.375)" fill="#211baa"/>
</svg>
