<svg xmlns="http://www.w3.org/2000/svg" width="16.364" height="16.364" viewBox="0 0 16.364 16.364">
  <path id="Icon_ionic-ios-checkmark-circle" data-name="Icon ionic-ios-checkmark-circle" d="M11.557,3.375a8.182,8.182,0,1,0,8.182,8.182A8.181,8.181,0,0,0,11.557,3.375ZM15.747,9.3l-5.259,5.283h0a.71.71,0,0,1-.456.216.689.689,0,0,1-.46-.224l-2.2-2.2a.157.157,0,0,1,0-.224l.7-.7a.152.152,0,0,1,.22,0l1.747,1.747,4.8-4.835a.155.155,0,0,1,.11-.047h0a.143.143,0,0,1,.11.047l.688.712A.155.155,0,0,1,15.747,9.3Z" transform="translate(-3.375 -3.375)" fill="#ff473e"/>
</svg>
