<svg xmlns="http://www.w3.org/2000/svg" width="10.604" height="10.604" viewBox="0 0 10.604 10.604"><defs><style>.a{fill:#ff473e;}</style></defs><path class="a" d="M13.078,10.447h0L9.861,7.23l3.217-3.217h0a.332.332,0,0,0,0-.469l-1.52-1.52a.332.332,0,0,0-.469,0h0L7.873,5.242,4.656,2.025h0a.332.332,0,0,0-.469,0l-1.52,1.52a.332.332,0,0,0,0,.469h0L5.884,7.23,2.668,10.447h0a.332.332,0,0,0,0,.469l1.52,1.52a.332.332,0,0,0,.469,0h0L7.873,9.218l3.217,3.217h0a.332.332,0,0,0,.468,0l1.52-1.52a.332.332,0,0,0,0-.469Z" transform="translate(-2.571 -1.928)"/></svg>