<svg xmlns="http://www.w3.org/2000/svg" width="17.49" height="16.427" viewBox="0 0 17.49 16.427">
  <defs>
    <style>
      .cls-1 {
        fill: none;
        stroke: #9a9a9a;
      }
    </style>
  </defs>
  <g id="Icon_ionic-md-thumbs-down" data-name="Icon ionic-md-thumbs-down" transform="translate(0.5 0.5)">
    <path id="Path_11188" data-name="Path 11188" class="cls-1" d="M13.919,4.5H7.1a1.454,1.454,0,0,0-1.356.928L3.478,10.795a1.517,1.517,0,0,0-.1.555v1.53a1.748,1.748,0,0,0,1.5,1.768H9.6l-.714,3.231-.024.238a1.149,1.149,0,0,0,.329.8l.793.8,5-5.042a1.526,1.526,0,0,0,.436-1.074V5.99A1.5,1.5,0,0,0,13.919,4.5Z" transform="translate(-3.375 -4.5)"/>
    <path id="Path_11189" data-name="Path 11189" class="cls-1" d="M28.125,4.5h2.537v8.879H28.125Z" transform="translate(-14.172 -4.5)"/>
  </g>
</svg>
