<svg xmlns="http://www.w3.org/2000/svg" width="27.09" height="27.09" viewBox="0 0 27.09 27.09">
  <g id="Icon_feather-settings" data-name="Icon feather-settings" transform="translate(1.5 1.5)">
    <path id="Path_11161" data-name="Path 11161" d="M20.07,16.785A3.285,3.285,0,1,1,16.785,13.5,3.285,3.285,0,0,1,20.07,16.785Z" transform="translate(-4.74 -4.74)" fill="none" stroke="#ff473e" stroke-linecap="round" stroke-linejoin="round" stroke-width="3"/>
    <path id="Path_11162" data-name="Path 11162" d="M21.648,16.83a1.807,1.807,0,0,0,.361,1.993l.066.066a2.191,2.191,0,1,1-3.1,3.1l-.066-.066a1.821,1.821,0,0,0-3.088,1.292V23.4a2.19,2.19,0,0,1-4.38,0v-.1a1.807,1.807,0,0,0-1.183-1.653,1.807,1.807,0,0,0-1.993.361l-.066.066a2.191,2.191,0,1,1-3.1-3.1l.066-.066a1.821,1.821,0,0,0-1.292-3.088H3.69a2.19,2.19,0,1,1,0-4.38h.1A1.807,1.807,0,0,0,5.442,10.26a1.807,1.807,0,0,0-.361-1.993L5.015,8.2a2.191,2.191,0,1,1,3.1-3.1l.066.066a1.807,1.807,0,0,0,1.993.361h.088a1.807,1.807,0,0,0,1.095-1.653V3.69a2.19,2.19,0,0,1,4.38,0v.1a1.821,1.821,0,0,0,3.088,1.292l.066-.066a2.191,2.191,0,1,1,3.1,3.1l-.066.066a1.807,1.807,0,0,0-.361,1.993v.088a1.807,1.807,0,0,0,1.653,1.095H23.4a2.19,2.19,0,0,1,0,4.38h-.1a1.807,1.807,0,0,0-1.653,1.095Z" transform="translate(-1.5 -1.5)" fill="none" stroke="#ff473e" stroke-linecap="round" stroke-linejoin="round" stroke-width="3"/>
  </g>
</svg>
