<svg xmlns="http://www.w3.org/2000/svg" width="1em" height="1em" viewBox="0 0 24.654 18.878">
  <path fill="currentColor" d="M20.032,22.991H15.987a.58.58,0,0,1-.578-.578V20.487a.58.58,0,0,1,.578-.578h4.045a1.539,1.539,0,0,0,1.541-1.541V9.123a1.539,1.539,0,0,0-1.541-1.541H15.987A.58.58,0,0,1,15.409,7V5.078a.58.58,0,0,1,.578-.578h4.045a4.624,4.624,0,0,1,4.623,4.623v9.245A4.624,4.624,0,0,1,20.032,22.991Zm-2.263-9.679-8.09-8.09A1.158,1.158,0,0,0,7.7,6.041v4.623H1.156A1.153,1.153,0,0,0,0,11.819v4.623A1.153,1.153,0,0,0,1.156,17.6H7.7V22.22a1.158,1.158,0,0,0,1.974.819l8.09-8.09A1.166,1.166,0,0,0,17.768,13.312Z" transform="translate(0 -4.5)"/>
</svg>