<svg xmlns="http://www.w3.org/2000/svg" width="20.373" height="16.173" viewBox="0 0 20.373 16.173">
  <path id="iconmonstr-medium-1" d="M2.416,6.3a.788.788,0,0,0-.257-.666L.257,3.342V3H6.164l4.565,10.012L14.742,3h5.63v.342L18.746,4.9a.477.477,0,0,0-.181.457V16.816a.476.476,0,0,0,.181.456l1.588,1.559v.342H12.345v-.342l1.646-1.6c.161-.161.161-.209.161-.456V7.517L9.578,19.136H8.96L3.633,7.517V15.3a1.075,1.075,0,0,0,.295.893l2.14,2.6v.343H0v-.343l2.14-2.6a1.035,1.035,0,0,0,.276-.893v-9Z" transform="translate(0 -3)" fill="#fff" fill-rule="evenodd"/>
</svg>
