<svg xmlns="http://www.w3.org/2000/svg" xmlns:xlink="http://www.w3.org/1999/xlink" width="100" height="100" viewBox="0 0 100 100">
  <defs>
    <linearGradient id="linear-gradient" x1="0.127" y1="0.195" x2="0.89" y2="0.807" gradientUnits="objectBoundingBox">
      <stop offset="0" stop-color="#ff473e"/>
      <stop offset="1" stop-color="blue"/>
    </linearGradient>
  </defs>
  <g id="Group_1035" data-name="Group 1035" transform="translate(-518 -698)">
    <circle id="Ellipse_8" data-name="Ellipse 8" cx="50" cy="50" r="50" transform="translate(518 698)" fill="url(#linear-gradient)"/>
    <circle id="Ellipse_9" data-name="Ellipse 9" cx="48" cy="48" r="48" transform="translate(520 700)" fill="#fff"/>
    <path id="Icon_awesome-arrow-right" data-name="Icon awesome-arrow-right" d="M13.395,4.7l1.561-1.561a1.681,1.681,0,0,1,2.384,0L31.008,16.8a1.681,1.681,0,0,1,0,2.384L17.339,32.857a1.681,1.681,0,0,1-2.384,0L13.395,31.3a1.689,1.689,0,0,1,.028-2.412L21.9,20.813H1.688A1.683,1.683,0,0,1,0,19.125v-2.25a1.683,1.683,0,0,1,1.688-1.687H21.9L13.423,7.116A1.677,1.677,0,0,1,13.395,4.7Z" transform="translate(551.851 730.5)" fill="#ff473e"/>
  </g>
</svg>
