<svg xmlns="http://www.w3.org/2000/svg" width="1em" height="1em" viewBox="0 0 25.773 18.042">
  <path fill="currentColor" d="M3.866,9.982A2.577,2.577,0,1,0,1.289,7.4,2.58,2.58,0,0,0,3.866,9.982Zm18.042,0A2.577,2.577,0,1,0,19.331,7.4,2.58,2.58,0,0,0,21.908,9.982ZM23.2,11.271H20.619a2.57,2.57,0,0,0-1.816.749,5.891,5.891,0,0,1,3.024,4.406h2.658a1.287,1.287,0,0,0,1.289-1.289V13.848A2.58,2.58,0,0,0,23.2,11.271Zm-10.31,0a4.51,4.51,0,1,0-4.51-4.51A4.508,4.508,0,0,0,12.887,11.271ZM15.98,12.56h-.334a6.227,6.227,0,0,1-5.517,0H9.794A4.641,4.641,0,0,0,5.155,17.2v1.16a1.934,1.934,0,0,0,1.933,1.933h11.6a1.934,1.934,0,0,0,1.933-1.933V17.2A4.641,4.641,0,0,0,15.98,12.56Zm-9.009-.54a2.57,2.57,0,0,0-1.816-.749H2.577A2.58,2.58,0,0,0,0,13.848v1.289a1.287,1.287,0,0,0,1.289,1.289H3.943A5.906,5.906,0,0,1,6.971,12.02Z" transform="translate(0 -2.25)"/>
</svg>