<svg xmlns="http://www.w3.org/2000/svg" width="26.49" height="21.192" viewBox="0 0 26.49 21.192">
  <path id="Icon_awesome-user-plus" data-name="Icon awesome-user-plus" d="M25.828,8.609H23.179V5.96a.664.664,0,0,0-.662-.662H21.192a.664.664,0,0,0-.662.662V8.609H17.881a.664.664,0,0,0-.662.662V10.6a.664.664,0,0,0,.662.662H20.53v2.649a.664.664,0,0,0,.662.662h1.325a.664.664,0,0,0,.662-.662V11.258h2.649a.664.664,0,0,0,.662-.662V9.272A.664.664,0,0,0,25.828,8.609ZM9.272,10.6a5.3,5.3,0,1,0-5.3-5.3A5.3,5.3,0,0,0,9.272,10.6Zm3.709,1.325h-.691a7.205,7.205,0,0,1-6.035,0H5.563A5.564,5.564,0,0,0,0,17.483v1.722a1.987,1.987,0,0,0,1.987,1.987h14.57a1.987,1.987,0,0,0,1.987-1.987V17.483A5.564,5.564,0,0,0,12.98,11.921Z" fill="#ff473e"/>
</svg>
