<svg xmlns="http://www.w3.org/2000/svg" width="41.191" height="41.191" viewBox="0 0 41.191 41.191">
  <path id="Icon_metro-cross" data-name="Icon metro-cross" d="M43.386,35.02h0l-12.5-12.5,12.5-12.5h0a1.29,1.29,0,0,0,0-1.82l-5.9-5.9a1.291,1.291,0,0,0-1.82,0h0l-12.5,12.5L10.67,2.3h0a1.29,1.29,0,0,0-1.82,0l-5.9,5.9a1.29,1.29,0,0,0,0,1.82h0l12.5,12.5-12.5,12.5h0a1.29,1.29,0,0,0,0,1.82l5.9,5.9a1.29,1.29,0,0,0,1.82,0h0l12.5-12.5,12.5,12.5h0a1.29,1.29,0,0,0,1.82,0l5.9-5.9a1.29,1.29,0,0,0,0-1.82Z" transform="translate(-2.571 -1.928)" fill="#ff473e"/>
</svg>
