<svg xmlns="http://www.w3.org/2000/svg" xmlns:xlink="http://www.w3.org/1999/xlink" width="754.851" height="762.961" viewBox="0 0 754.851 762.961">
  <defs>
    <filter id="Path_11410" x="0" y="0" width="754.851" height="762.961" filterUnits="userSpaceOnUse">
      <feOffset dy="8" input="SourceAlpha"/>
      <feGaussianBlur stdDeviation="5" result="blur"/>
      <feFlood flood-opacity="0.4"/>
      <feComposite operator="in" in2="blur"/>
      <feComposite in="SourceGraphic"/>
    </filter>
    <filter id="Path_11411" x="89.356" y="104.799" width="574.674" height="554.208" filterUnits="userSpaceOnUse">
      <feOffset dy="8" input="SourceAlpha"/>
      <feGaussianBlur stdDeviation="5" result="blur-2"/>
      <feFlood flood-opacity="0.2"/>
      <feComposite operator="in" in2="blur-2"/>
      <feComposite in="SourceGraphic"/>
    </filter>
  </defs>
  <g id="Component_23_1" data-name="Component 23 – 1" transform="translate(15 7)">
    <g transform="matrix(1, 0, 0, 1, -15, -7)" filter="url(#Path_11410)">
      <path id="Path_11410-2" data-name="Path 11410" d="M-1010.545,2167.446c-70.614,8.1-118.364,38.288-84.459,144.745s103.153,101.878,136.085,148.97,2.524,116.9,58.8,140.014,132.157,55.652,165.087,13.57,140.8-11.166,162.247-92.463,11.044-125.518-20.006-185.173-40.275-88.457-92-101.05-59.854-13.106-97.89-57.607-53.679-77.568-105.7-61.917S-939.931,2159.345-1010.545,2167.446Z" transform="translate(2850.15 -91.33) rotate(60)" fill="#f82626" opacity="0.9"/>
    </g>
    <g transform="matrix(1, 0, 0, 1, -15, -7)" filter="url(#Path_11411)">
      <path id="Path_11411-2" data-name="Path 11411" d="M-1010.545,2167.446c-70.614,8.1-118.364,38.288-84.459,144.745s66.854,134.484,119.3,193.881,19.311,71.992,75.584,95.1,229.451,57.987,262.381,15.905,43.5-13.5,64.953-94.8,11.044-125.518-20.006-185.173-40.275-88.457-92-101.05-59.854-13.106-97.89-57.607-53.679-77.568-105.7-61.917S-939.931,2159.345-1010.545,2167.446Z" transform="translate(1210.52 -2000.79)" fill="#fff"/>
    </g>
    <g id="undraw_percentages_re_a1ao" transform="translate(158.738 231.957)">
      <path id="Path_11322" data-name="Path 11322" d="M868.015,712.011l.008-.38a43.948,43.948,0,0,1,16.434-33.1,42.635,42.635,0,0,1,9.161-5.52l.312-.139.053.337c.634,4.028,1.638,8.139,2.105,9.963l3.135-12.232.348-.1a8.335,8.335,0,0,1,8.9,2.843,8.478,8.478,0,0,1,.88,9.459c-.731,1.361-1.449,2.782-2.144,4.155-2.387,4.72-4.855,9.6-8.452,13.393a26.564,26.564,0,0,1-21.425,7.992Z" transform="translate(-530.533 -387.049)" fill="#ccc"/>
      <path id="Path_11323" data-name="Path 11323" d="M540.067,567.566h-5.455l-2.6-21.042h8.051Z" transform="translate(-241.672 -248.262)" fill="#ffb6b6"/>
      <path id="Path_11324" data-name="Path 11324" d="M782.784,739.073H766.008v-.212a6.53,6.53,0,0,1,6.529-6.529h0l3.064-2.325,5.717,2.325h1.464Z" transform="translate(-484.196 -414.078)" fill="#2f2e41"/>
      <path id="Path_11325" data-name="Path 11325" d="M634.205,543.083l-4.31,3.344L614.944,531.4l6.361-4.936Z" transform="translate(-279.342 -239.148)" fill="#ffb6b6"/>
      <path id="Path_11326" data-name="Path 11326" d="M894.255,711.62,881,721.905l-.13-.168a6.53,6.53,0,0,1,1.155-9.162h0l1-3.715,5.942-1.669,1.157-.9Z" transform="translate(-535.751 -403.307)" fill="#2f2e41"/>
      <path id="Path_11327" data-name="Path 11327" d="M814.832,505.444s-.372,5.7-.842,13.841c-.077,1.336.377,2.787.3,4.24-.054.964-.642,1.9-.7,2.906-.058,1.061.754,2,.7,3.1-.057,1.072-.983,2.3-1.039,3.4-.6,11.807-2.781,25.941-.6,29.892,1.076,1.947,17.464,28.924,17.464,28.924s-7.64,11.461-9.823,7.64c-2.883-5.046-25.1-28.652-25.1-33.159s-5.141-38.246-5.141-38.246l-3.585,19.969-1.644,3.956.516,2.323-1.062,3.135-.057,3.1-1.034,5.761s3.111,44.882,1.359,46.132-10.266,3.509-11.27,1.255-4.824-46.841-4.824-46.841-1.048-20.432-2.183-39.424c-.065-1.1-.84-2.434-.9-3.52-.071-1.261.42-2.9.355-4.12-.071-1.4-.693-2.39-.753-3.733-.464-10.375-.535-18.55.295-19.794,2.505-3.755,4.759-6.756,4.759-6.756s35.8-8.765,44.816,2.5Z" transform="translate(-483.566 -303.315)" fill="#2f2e41"/>
      <path id="Path_11328" data-name="Path 11328" d="M780.767,324.213l8.632-.483,6.505,3.551,18.09,102.445S795.5,438.273,784.041,435a92.589,92.589,0,0,0-23.53-3.09l8.795-97.872,7.095-6.549Z" transform="translate(-481.7 -229.525)" fill="#e6e6e6"/>
      <path id="Path_11329" data-name="Path 11329" d="M821.8,328.595l13.361,5.456a9.094,9.094,0,0,1,8.5,7.459l-.887,26.388-4.819,12.553,3.436,28.6-1.8,3.6,1.555,3.676c-2.282,3.705-1.818,8.56-.463,13.787h-1.637l-3.274-.546s-7.209,2.5-8.686-6.486c-3.866-23.53-6.049-13.161-6.049-13.161l-1.9-73.005Z" transform="translate(-508.331 -231.734)" fill="#3f3d56"/>
      <path id="Path_11330" data-name="Path 11330" d="M773.158,328.615,760.677,341.7a9.094,9.094,0,0,0-8.5,7.459l5.16,40.579-2.422,15.57,1.33,3.531-.963,3.991,1.509,3.65-1.091,4.912,1.637,7.095,8.186-2.183-.063-5.819,2.183-79.133Z" transform="translate(-477.911 -231.744)" fill="#3f3d56"/>
      <path id="Path_11331" data-name="Path 11331" d="M697.271,451.872l-17,12.338a3.713,3.713,0,1,0,3.5,5.384l23.12-12.343Z" transform="translate(-443.649 -287.734)" fill="#ffb6b6"/>
      <path id="Path_11332" data-name="Path 11332" d="M730.888,355.493c-3.232,1.491-11.214,39.649-13.557,40.458s-1.448.688-1.777,1.363-.408,3.7-2.657,4.055-14.133,11.189-14.133,11.189l3.012,10.041s22.867-13.064,29.173-20.3,9.7-44.439,9.7-44.439l.645-3.712S734.119,354,730.888,355.493Z" transform="translate(-453.65 -243.34)" fill="#3f3d56"/>
      <path id="Path_11333" data-name="Path 11333" d="M836.467,442.64l-15.152,14.55a3.713,3.713,0,1,0,4.209,4.854l21.212-15.393Z" transform="translate(-507.95 -283.54)" fill="#ffb6b6"/>
      <path id="Path_11334" data-name="Path 11334" d="M847.356,353.925c-3,1.919,8.391,29.754,6.181,30.876s-1.341.879-1.574,1.593.1,3.721-2.077,4.38-12.467,13.019-12.467,13.019l4.359,9.534s20.862-16.073,26.117-24.1,1.835-10.741,1.835-10.741c-6.519-13.847-12.617-36.429-21.83-34.928C847.9,343.556,850.353,352.006,847.356,353.925Z" transform="translate(-516.635 -238.498)" fill="#3f3d56"/>
      <circle id="Ellipse_57" data-name="Ellipse 57" cx="14.629" cy="14.629" r="14.629" transform="translate(286.289 63.269)" fill="#ffb6b6"/>
      <path id="Path_11335" data-name="Path 11335" d="M801.509,288.916s-3.222.883-5.1,1.375a27.74,27.74,0,0,1,1.008-4.066,4.156,4.156,0,0,0-.774-3.934c-1.014-.964-3.127-.588-3.291.8l-2.58-5.515c-2.457,5.057-7.48.748-12.958,2.026-2.794.658-6.3.375-7.772-2.087a9.122,9.122,0,0,0,2.064-2.476,8.332,8.332,0,0,1-2.624.332,5.5,5.5,0,0,1,2.432-4.439c.788-.515-1.162-2.348-.475-2.993,1.41-1.317,2.356-.423,3.189-2.158a6.41,6.41,0,0,1,5.792-3.541c2.394.056,6.684.033,7.613,2.239,2.96-1.938,7.081-1.39,9.975.643,2.405,1.683,5.143,6.771,5.747,9.643S803.032,286.413,801.509,288.916Z" transform="translate(-485.776 -201.591)" fill="#2f2e41"/>
      <path id="Path_11336" data-name="Path 11336" d="M412.543,241.213H318.867a6.664,6.664,0,0,1-6.726-6.1,6.553,6.553,0,0,1,6.534-7h93.868a6.549,6.549,0,1,1,0,13.1Z" transform="translate(-278.018 -186.091)" fill="#ff473d"/>
      <path id="Path_11337" data-name="Path 11337" d="M466.2,270.706H312.172a.546.546,0,1,1,0-1.091H466.2a.546.546,0,1,1,0,1.091Z" transform="translate(-277.791 -204.943)" fill="#e6e6e6" opacity="0.245"/>
      <path id="Path_11338" data-name="Path 11338" d="M459.8,241.258H318.448a6.822,6.822,0,0,1,0-13.644H459.8a6.822,6.822,0,0,1,0,13.644ZM318.448,228.706a5.73,5.73,0,0,0,0,11.461H459.8a5.73,5.73,0,1,0,0-11.461Z" transform="translate(-277.79 -185.864)" fill="#2f2e41"/>
      <path id="Path_11339" data-name="Path 11339" d="M370.521,335.213H318.867a6.664,6.664,0,0,1-6.726-6.1,6.553,6.553,0,0,1,6.534-7h51.846a6.549,6.549,0,1,1,0,13.1Z" transform="translate(-278.018 -228.791)" fill="#ff473d"/>
      <path id="Path_11340" data-name="Path 11340" d="M466.2,364.706H312.172a.546.546,0,1,1,0-1.091H466.2a.546.546,0,1,1,0,1.091Z" transform="translate(-277.791 -247.643)" fill="#e6e6e6" opacity="0.245"/>
      <path id="Path_11341" data-name="Path 11341" d="M459.8,335.258H318.448a6.822,6.822,0,0,1,0-13.644H459.8a6.822,6.822,0,0,1,0,13.644ZM318.448,322.706a5.73,5.73,0,0,0,0,11.461H459.8a5.73,5.73,0,1,0,0-11.461Z" transform="translate(-277.79 -228.564)" fill="#2f2e41"/>
      <path id="Path_11342" data-name="Path 11342" d="M439.831,429.213H318.867a6.664,6.664,0,0,1-6.726-6.1,6.553,6.553,0,0,1,6.534-7H439.831a6.549,6.549,0,0,1,0,13.1Z" transform="translate(-278.018 -271.491)" fill="#ff473d"/>
      <path id="Path_11343" data-name="Path 11343" d="M466.2,458.706H312.172a.546.546,0,1,1,0-1.091H466.2a.546.546,0,1,1,0,1.091Z" transform="translate(-277.791 -290.343)" fill="#e6e6e6" opacity="0.245"/>
      <path id="Path_11344" data-name="Path 11344" d="M459.8,429.258H318.448a6.822,6.822,0,0,1,0-13.644H459.8a6.822,6.822,0,0,1,0,13.644ZM318.448,416.706a5.73,5.73,0,0,0,0,11.461H459.8a5.73,5.73,0,1,0,0-11.461Z" transform="translate(-277.79 -271.264)" fill="#2f2e41"/>
      <path id="Path_11345" data-name="Path 11345" d="M229.305,53.809h-1.091V11.763H307.16v1.091H229.305Z" transform="translate(-103.668 -5.343)" fill="#ccc"/>
      <circle id="Ellipse_58" data-name="Ellipse 58" cx="6.519" cy="6.519" r="6.519" transform="translate(200.347 0)" fill="#ccc"/>
      <path id="Path_11346" data-name="Path 11346" d="M95.983,162.8h1.091V138.763H18.129v1.091H95.983Z" transform="translate(-8.235 -63.034)" fill="#ccc"/>
      <circle id="Ellipse_59" data-name="Ellipse 59" cx="6.519" cy="6.519" r="6.519" transform="translate(0 69.309)" fill="#ccc"/>
      <path id="Path_11347" data-name="Path 11347" d="M295.305,280.2h-1.091V310.24h66.939v-1.091H295.305Z" transform="translate(-133.649 -127.283)" fill="#ccc"/>
      <circle id="Ellipse_60" data-name="Ellipse 60" cx="6.519" cy="6.519" r="6.519" transform="translate(224.36 176.338)" fill="#ccc"/>
      <path id="Path_11348" data-name="Path 11348" d="M825.2,747.5l-148.306.168a.65.65,0,0,1,0-1.3L825.2,746.2a.65.65,0,0,1,0,1.3Z" transform="translate(-443.419 -421.434)" fill="#cacaca"/>
      <path id="Path_11349" data-name="Path 11349" d="M810.067,324.242a2.433,2.433,0,0,0-3.3-.782c.8-1.115.2-3.02-1.06-3.79-1.425-.872-3.224-.728-4.886-.554l-13.62,1.423a12.535,12.535,0,0,0-4.582,1.075,4.262,4.262,0,0,0-2.467,3.744,7.836,7.836,0,0,0-3.341-.453,2.678,2.678,0,0,0-2.343,2.122c-.192,1.809,1.957,2.853,3.707,3.349l9.747,2.762-1,.214a41.518,41.518,0,0,0,18.8-2.72,9.14,9.14,0,0,0,3.713-2.3A3.648,3.648,0,0,0,810.067,324.242Z" transform="translate(-488.035 -227.369)" fill="#e6e6e6"/>
    </g>
  </g>
</svg>
