<svg id="Layer_1" data-name="Layer 1" xmlns="http://www.w3.org/2000/svg" viewBox="0 0 304.28 338.35"><g id="FDVf7b"><path d="M169.22,17.12c0,5,.05,10,0,15,0,1.46.41,2,1.92,2a134,134,0,0,1,39,6.27,132.31,132.31,0,0,1,42.28,22.36A135,135,0,0,1,274,254.46a135.57,135.57,0,0,1-33.87,29.75,131.16,131.16,0,0,1-48.43,18.19c-6.76,1.1-13.65,1.44-20.5,1.92-1.82.13-2,.86-2,2.34.05,9.82,0,19.65.07,29.48,0,1.82-.57,2.23-2.29,2.2A168.64,168.64,0,0,1,52.34,291.5,168.66,168.66,0,0,1,14.9,238.73a165.63,165.63,0,0,1-13.68-49,169.88,169.88,0,0,1-.15-39.36A166.34,166.34,0,0,1,37.49,63,167.46,167.46,0,0,1,112.28,9.81,161.37,161.37,0,0,1,157.23.48c3.33-.21,6.67-.24,10-.47,1.64-.11,2.05.51,2,2.07C169.17,7.09,169.22,12.1,169.22,17.12Zm-.28,51.46c-55.49.16-100.62,45.35-100.39,100.77a100.65,100.65,0,1,0,201.3-.7C269.72,113.42,224.33,68.43,168.94,68.58Z"/></g></svg>