<?xml version="1.0" encoding="utf-8"?>
<!-- Generator: Adobe Illustrator 24.1.2, SVG Export Plug-In . SVG Version: 6.00 Build 0)  -->
<svg version="1.1" id="Layer_1" xmlns="http://www.w3.org/2000/svg" xmlns:xlink="http://www.w3.org/1999/xlink" x="0px" y="0px"
	 viewBox="0 0 24 16.8" style="enable-background:new 0 0 24 16.8;" xml:space="preserve">
<path fill="currentColor" id="Icon_awesome-cloud-upload-alt" d="M20.2,7.3c0.7-1.9-0.2-3.9-2.1-4.7c-0.4-0.2-0.8-0.2-1.3-0.2c-0.7,0-1.4,0.2-2,0.6
	c-1.7-2.9-5.3-3.9-8.2-2.2c-1.9,1.1-3,3.1-3,5.2c0,0.1,0,0.2,0,0.3c-2.8,1-4.3,4.1-3.3,6.9c0.8,2.2,2.8,3.6,5.1,3.6h13.8
	c2.7,0,4.8-2.2,4.8-4.8C24,9.7,22.4,7.8,20.2,7.3z M14.8,9.6h-2.5v4.2c0,0.3-0.3,0.6-0.6,0.6H9.9c-0.3,0-0.6-0.3-0.6-0.6V9.6H6.8
	C6.5,9.6,6.2,9.3,6.2,9c0-0.2,0.1-0.3,0.2-0.4l4-4c0.2-0.2,0.6-0.2,0.8,0l4,4c0.2,0.2,0.2,0.6,0,0.8C15.1,9.5,14.9,9.6,14.8,9.6
	L14.8,9.6z"/>
</svg>
