<?xml version="1.0" encoding="UTF-8"?>
<!-- Generator: Adobe Illustrator 25.2.3, SVG Export Plug-In . SVG Version: 6.00 Build 0)  -->
<svg version="1.1" id="Layer_1" xmlns="http://www.w3.org/2000/svg" xmlns:xlink="http://www.w3.org/1999/xlink" x="0px" y="0px" viewBox="0 0 61 88.8" style="enable-background:new 0 0 61 88.8;" xml:space="preserve">
<style type="text/css">
	.st0{fill:#050505;}
	.st1{fill:#FF473E;}
</style>
<g>
	<g>
		<path class="st1" d="M58.9,72.8L37.8,35.4V11.7h1.9c2,0,3.6-1.6,3.6-3.6s-1.6-3.6-3.6-3.6h-2.3l0.9-1.3C38.7,1.6,37.5,0,35.8,0    H24.5c-1.7,0-2.9,1.6-2.5,3.3l1,1.3h-2.3c-2,0-3.6,1.6-3.6,3.6s1.6,3.6,3.6,3.6h1.9v23.7L1.4,72.8c-1.9,3.3-1.8,7.2,0.1,10.5    s5.3,5.2,9.1,5.2h39.3c3.8,0,7.2-1.9,9.1-5.2C60.8,80,60.8,76.1,58.9,72.8z M57.7,82.6c-1.7,2.8-4.6,4.5-7.9,4.5H10.5    c-3.3,0-6.3-1.7-7.9-4.5c-1.7-2.8-1.7-6.3-0.1-9.1l21.4-37.8V10.4h-3.3c-1.2,0-2.2-1-2.2-2.2s1-2.2,2.2-2.2h19    c1.2,0,2.2,1,2.2,2.2s-1,2.2-2.2,2.2h-3.3v25.3l21.4,37.8C59.4,76.3,59.4,79.8,57.7,82.6z"/>
		<path class="st1" d="M46.5,64.1C41.2,66.4,35,67.2,29,63.6c-4.9-2.9-9.3-3.7-13-3.4L7,76c-1,1.8-0.3,3.4,0,4s1.4,2,3.4,2h39.3    c2.1,0,3.1-1.4,3.4-2c0.4-0.6,1-2.2,0-4L46.5,64.1z"/>
		<path class="st1" d="M26.3,51.9c0.1,0,0.2,0,0.3,0l3.6,3.9c-0.1,0.3-0.2,0.6-0.2,1c0,1.3,1.1,2.4,2.4,2.4s2.4-1.1,2.4-2.4    c0-1.3-1.1-2.4-2.4-2.4c-0.5,0-1,0.2-1.4,0.4L27.5,51c0-0.1,0.1-0.2,0.1-0.3l3.3-1.5c0.6,0.9,1.7,1.4,2.8,1.4    c1.9,0,3.5-1.6,3.5-3.5s-1.6-3.5-3.5-3.5c-1.9,0-3.5,1.6-3.5,3.5c0,0.3,0,0.6,0.1,0.8L27,49.4c-0.2-0.2-0.5-0.3-0.8-0.3    c-0.8,0-1.4,0.6-1.4,1.4C25,51.3,25.6,51.9,26.3,51.9z"/>
	</g>
</g>
</svg>