<svg id="Layer_1" data-name="Layer 1" xmlns="http://www.w3.org/2000/svg" viewBox="0 0 256 256"><circle cx="77.63" cy="104.03" r="11.88" fill="#ff2a14"/><circle cx="44.39" cy="186.29" r="11.88" fill="#ff2a14"/><circle cx="103.23" cy="20.74" r="11.88" fill="#ff2a14"/><circle cx="148.81" cy="58.06" r="11.88" fill="#ff2a14"/><circle cx="195.86" cy="26.54" r="11.88" fill="#ff2a14"/><circle cx="227.64" cy="50.31" r="11.88" fill="#ff2a14"/><circle cx="193.41" cy="178.42" r="11.88" fill="#ff2a14"/><circle cx="184.8" cy="234.79" r="11.88" fill="#ff2a14"/><circle cx="136.93" cy="242.97" r="11.88" fill="#ff2a14"/><circle cx="104.65" cy="186.21" r="11.88" fill="#ff2a14"/><circle cx="39.96" cy="92.01" r="17.13" fill="#ff2a14"/><circle cx="70.11" cy="151.95" r="17.13" fill="#ff2a14"/><circle cx="147.95" cy="18.28" r="17.13" fill="#ff2a14"/><circle cx="104.05" cy="62.91" r="17.13" fill="#ff2a14"/><circle cx="193.41" cy="69.95" r="17.13" fill="#ff2a14"/><circle cx="82.21" cy="219.66" r="17.13" fill="#ff2a14"/><circle cx="149.63" cy="204.17" r="17.13" fill="#ff2a14"/><circle cx="224.06" cy="207.81" r="13.71" fill="#ff2a14"/><circle cx="30.18" cy="140.48" r="13.71" fill="#ff2a14"/><circle cx="67.55" cy="43.81" r="13.71" fill="#ff2a14"/><polygon points="194.65 180.53 192.17 176.32 148.72 201.87 87.68 215.9 106.68 187.58 102.62 184.85 83.55 213.28 72.7 152.56 71.81 149.9 44.75 96.1 76.89 106.35 78.37 101.7 46.74 91.61 105.47 64.94 145.63 24.11 146.37 58.12 151.25 58.01 150.53 24.91 192.9 73.06 228.86 52.42 226.43 48.19 193.93 66.84 154.35 21.86 195.45 28.94 196.28 24.13 149.21 16.02 147.1 15.65 145.48 17.3 106.38 57.06 105.67 20.69 100.79 20.79 101.58 61.35 45.84 86.66 69.66 45.03 65.43 42.6 38.23 90.11 36.64 90.83 65.42 148.06 30.86 138.13 29.51 142.83 66.03 153.32 42.43 184.83 46.34 187.76 68.7 157.91 79.64 219.12 80.04 221.39 81.99 222.21 135.97 245.22 137.88 240.72 90.08 220.35 148.97 206.83 183.2 236.63 186.4 232.95 156.54 206.95 223.94 210.25 224.18 205.37 157.91 202.13 194.65 180.53" fill="#ff2a14"/></svg>