<svg xmlns="http://www.w3.org/2000/svg" width="24.965" height="24.965" viewBox="0 0 24.965 24.965">
  <path id="Icon_awesome-user-circle" data-name="Icon awesome-user-circle" d="M12.482.563A12.482,12.482,0,1,0,24.965,13.045,12.48,12.48,0,0,0,12.482.563Zm0,4.832A4.429,4.429,0,1,1,8.053,9.824,4.429,4.429,0,0,1,12.482,5.394Zm0,17.314a9.645,9.645,0,0,1-7.374-3.433,5.612,5.612,0,0,1,4.958-3.01,1.232,1.232,0,0,1,.357.055,6.664,6.664,0,0,0,2.059.347,6.639,6.639,0,0,0,2.059-.347,1.232,1.232,0,0,1,.357-.055,5.612,5.612,0,0,1,4.958,3.01A9.645,9.645,0,0,1,12.482,22.709Z" transform="translate(0 -0.563)"/>
</svg>
