<svg xmlns="http://www.w3.org/2000/svg" width="1rem" height="1rem" viewBox="0 0 31.235 21.865">
  <path id="Icon_awesome-vote-yea" data-name="Icon awesome-vote-yea" d="M29.673,16.306H26.55v3.123h1.093a.436.436,0,0,1,.469.39V20.6a.436.436,0,0,1-.469.39H3.592a.436.436,0,0,1-.469-.39V19.82a.436.436,0,0,1,.469-.39H4.685V16.306H1.562A1.56,1.56,0,0,0,0,17.867v4.685a1.56,1.56,0,0,0,1.562,1.562H29.673a1.56,1.56,0,0,0,1.562-1.562V17.867A1.56,1.56,0,0,0,29.673,16.306Zm-4.685,3.123V3.826A1.576,1.576,0,0,0,23.412,2.25H7.828A1.58,1.58,0,0,0,6.247,3.826v15.6Zm-14.68-8.882,1.245-1.235a.52.52,0,0,1,.742,0l2.016,2.03L18.956,6.74a.52.52,0,0,1,.742,0l1.235,1.245a.52.52,0,0,1,0,.742l-6.262,6.208a.52.52,0,0,1-.742,0l-3.616-3.646a.52.52,0,0,1,0-.742Z" transform="translate(0 -2.25)" fill="#ff473e"/>
</svg>
