<svg xmlns="http://www.w3.org/2000/svg" width="1em" height="1em" viewBox="0 0 25.8 22.575"><defs><style>.a{fill:#d3d3d3;}</style></defs><path class="a" d="M25.8,7.894V22.406a2.419,2.419,0,0,1-2.419,2.419H2.419A2.419,2.419,0,0,1,0,22.406V7.894A2.419,2.419,0,0,1,2.419,5.475H6.853l.62-1.658A2.415,2.415,0,0,1,9.735,2.25h6.324a2.415,2.415,0,0,1,2.263,1.567l.625,1.658h4.434A2.419,2.419,0,0,1,25.8,7.894ZM18.947,15.15A6.047,6.047,0,1,0,12.9,21.2,6.052,6.052,0,0,0,18.947,15.15Zm-1.612,0A4.434,4.434,0,1,1,12.9,10.716,4.441,4.441,0,0,1,17.334,15.15Z" transform="translate(0 -2.25)"/></svg>