<svg xmlns="http://www.w3.org/2000/svg" width="1em" height="1em" viewBox="0 0 21.34 17.338">
  <path fill="currentColor" d="M3.334,16.712H.667A.667.667,0,0,0,0,17.379v2.667a.667.667,0,0,0,.667.667H3.334A.667.667,0,0,0,4,20.046V17.379A.667.667,0,0,0,3.334,16.712Zm0-13.337H.667A.667.667,0,0,0,0,4.042V6.709a.667.667,0,0,0,.667.667H3.334A.667.667,0,0,0,4,6.709V4.042A.667.667,0,0,0,3.334,3.375Zm0,6.668H.667A.667.667,0,0,0,0,10.71v2.667a.667.667,0,0,0,.667.667H3.334A.667.667,0,0,0,4,13.378V10.71A.667.667,0,0,0,3.334,10.043Zm17.338,7.335H7.335a.667.667,0,0,0-.667.667v1.334a.667.667,0,0,0,.667.667H20.672a.667.667,0,0,0,.667-.667V18.046A.667.667,0,0,0,20.672,17.379Zm0-13.337H7.335a.667.667,0,0,0-.667.667V6.042a.667.667,0,0,0,.667.667H20.672a.667.667,0,0,0,.667-.667V4.709A.667.667,0,0,0,20.672,4.042Zm0,6.668H7.335a.667.667,0,0,0-.667.667v1.334a.667.667,0,0,0,.667.667H20.672a.667.667,0,0,0,.667-.667V11.377A.667.667,0,0,0,20.672,10.71Z" transform="translate(0 -3.375)"/>
</svg>