<svg width="1em" height="1em" version="1.1" id="Layer_1" x="0px" y="0px"
	 viewBox="0 0 1000 1000" xml:space="preserve">
		<path d="M562.5,571.1c5.5-21,3-43.2-7.4-67.3l-1.6-3.7l60.7-60.7l6.1,1.3c8.6,1.8,24.4,1.4,31.4-0.8c11.7-3.7,16.1-7.8,14.5-13.3
			c-0.6-2-10.8-12.6-47.5-49.3c-36.8-36.7-47.4-47-49.3-47.5c-5.5-1.7-9.5,2.8-13.3,14.5c-2.2,7-2.7,22.8-0.8,31.4l1.3,6.1
			l-60.7,60.7l-3.7-1.6c-24.1-10.5-46.3-12.9-67.3-7.4c-11.9,3.1-25.7,11-32.4,18.5c-2.2,2.4-2.7,3.4-2.7,5.8v2.9l30,30
			c27.9,27.9,29.9,30,28.9,31.2c-2.1,2.4-46.1,53.4-68.5,79.3c-12.4,14.3-22.9,26.7-23.3,27.5c-1.7,3.1-0.6,6.6,1.6,8.8
			c2.2,2.3,5.7,3.3,8.8,1.6c0.8-0.4,13.2-11,27.5-23.3c25.9-22.4,76.9-66.4,79.3-68.5c1.2-1,3.4,1,31.2,28.9l30,30h2.9
			c2.4,0,3.4-0.5,5.8-2.7C551.5,596.8,559.4,583,562.5,571.1z" fill="currentColor" />
		<path d="M500,780.6c-75,0-145.4-29.2-198.4-82.2S219.4,575,219.4,500s29.2-145.4,82.2-198.4c53-53,123.5-82.2,198.4-82.2
			s145.4,29.2,198.4,82.2c53,53,82.2,123.5,82.2,198.4s-29.2,145.4-82.2,198.4C645.4,751.4,575,780.6,500,780.6z M500,254.4
			c-65.6,0-127.3,25.6-173.7,71.9c-46.4,46.4-71.9,108.1-71.9,173.7s25.6,127.3,71.9,173.7c46.4,46.4,108.1,71.9,173.7,71.9
			s127.3-25.6,173.7-71.9c46.4-46.4,71.9-108.1,71.9-173.7c0-65.6-25.6-127.3-71.9-173.7C627.3,279.9,565.6,254.4,500,254.4z" fill="currentColor" />
</svg>
