<svg xmlns="http://www.w3.org/2000/svg" xmlns:xlink="http://www.w3.org/1999/xlink" width="52" height="52" viewBox="0 0 52 52">
  <defs>
    <linearGradient id="linear-gradient" x1="0.873" y1="0.195" x2="0.11" y2="0.807" gradientUnits="objectBoundingBox">
      <stop offset="0" stop-color="#ff473e"/>
      <stop offset="1" stop-color="blue"/>
    </linearGradient>
  </defs>
  <g id="Group_1035" data-name="Group 1035" transform="translate(-24 -24)">
    <circle id="Ellipse_8" data-name="Ellipse 8" cx="26" cy="26" r="26" transform="translate(24 24)" fill="url(#linear-gradient)"/>
    <circle id="Ellipse_9" data-name="Ellipse 9" cx="24" cy="24" r="24" transform="translate(26 26)" fill="#fff"/>
    <path id="Icon_awesome-arrow-right" data-name="Icon awesome-arrow-right" d="M9.847,3.766,9,2.917a.914.914,0,0,0-1.3,0L.27,10.346a.914.914,0,0,0,0,1.3L7.7,19.074a.914.914,0,0,0,1.3,0l.849-.849a.919.919,0,0,0-.015-1.311L5.225,12.525H16.213a.915.915,0,0,0,.918-.918V10.384a.915.915,0,0,0-.918-.918H5.225L9.832,5.077A.912.912,0,0,0,9.847,3.766Z" transform="translate(41.832 39.504)" fill="#ff473e"/>
  </g>
</svg>
