<svg xmlns="http://www.w3.org/2000/svg" width="1em" height="1em" viewBox="0 0 21 20.999">
  <path fill="currentColor" d="M24019.578,11814a1.914,1.914,0,0,1-1.912-1.911V11812a1.642,1.642,0,0,0-2.768-1.127l-.055.06a1.9,1.9,0,0,1-2.7,0,1.907,1.907,0,0,1,0-2.7l.055-.061a1.57,1.57,0,0,0,.32-1.737,1.59,1.59,0,0,0-1.449-.952h-.162a1.909,1.909,0,0,1,0-3.817h.09a1.6,1.6,0,0,0,1.441-1.031,1.567,1.567,0,0,0-.318-1.737l-.055-.061a1.91,1.91,0,1,1,2.7-2.7l.055.06a1.58,1.58,0,0,0,1.742.314h.072a1.584,1.584,0,0,0,.959-1.441v-.163a1.906,1.906,0,0,1,3.813,0v.084a1.582,1.582,0,0,0,.959,1.441,1.557,1.557,0,0,0,1.736-.313l.055-.054a1.91,1.91,0,1,1,2.7,2.7l-.055.055a1.568,1.568,0,0,0-.318,1.736v.079a1.581,1.581,0,0,0,1.441.952h.168a1.909,1.909,0,0,1,0,3.817h-.09a1.587,1.587,0,0,0-1.121,2.7l.053.054a1.91,1.91,0,1,1-2.7,2.7l-.055-.055a1.587,1.587,0,0,0-2.7,1.122v.163A1.911,1.911,0,0,1,24019.578,11814Zm-.078-15a4.5,4.5,0,1,0,4.5,4.5A4.506,4.506,0,0,0,24019.5,11799Z" transform="translate(-24009 -11793.002)"/>
</svg>